fontCallback.success({"glyphs":{"S":{"x_min":69.4375,"x_max":662.5,"ha":631,"o":"m 662 876 b 463 913 591 887 588 913 b 173 673 350 913 202 840 b 391 386 145 511 301 425 b 480 201 466 352 494 281 b 300 43 461 98 401 43 b 141 247 211 43 145 120 l 87 243 b 69 0 81 137 79 70 b 131 6 93 0 105 6 b 318 -13 163 6 187 -13 b 631 255 469 -13 600 70 b 437 538 661 423 541 495 b 308 718 386 559 293 629 b 452 859 322 795 365 859 b 598 658 566 859 591 750 l 654 665 b 662 876 654 733 655 802 "},"¦":{"x_min":43,"x_max":417,"ha":318,"o":"m 417 937 l 289 937 l 186 429 l 314 429 l 417 937 m 273 231 l 145 231 l 43 -276 l 170 -276 l 273 231 "},"/":{"x_min":-2.78125,"x_max":611.109375,"ha":439,"o":"m 611 947 l 525 947 l -2 -29 l 84 -29 l 611 947 "},"₢":{"x_min":72.21875,"x_max":720.828125,"ha":608,"o":"m 329 -22 b 597 151 447 -22 548 57 l 515 175 b 433 73 487 125 459 93 l 469 258 b 531 373 477 291 515 354 b 533 368 531 372 533 369 b 605 334 538 346 565 334 b 690 395 648 334 683 368 l 690 404 b 605 454 690 431 658 454 b 501 408 563 454 530 433 l 512 454 l 461 454 b 415 443 441 454 430 450 b 288 401 375 425 358 418 l 288 355 b 305 357 294 357 300 357 b 331 333 320 357 331 351 b 330 319 331 329 331 323 l 281 79 b 245 215 258 105 245 151 b 269 407 245 266 254 332 b 502 755 306 593 398 755 b 597 616 547 755 597 709 b 595 583 597 607 597 594 l 693 589 l 720 815 l 623 808 b 620 794 623 804 622 800 l 620 790 b 516 814 598 800 568 814 b 86 389 322 814 138 646 b 72 265 77 346 72 304 b 329 -22 72 90 163 -22 "},"y":{"x_min":20.828125,"x_max":762.5,"ha":708,"o":"m 409 477 b 325 616 395 552 386 616 b 125 486 240 616 194 569 b 159 443 130 466 138 455 b 230 502 177 470 211 502 b 251 473 238 502 245 494 b 363 -37 251 473 330 140 l 327 -94 b 187 -212 270 -188 212 -212 b 111 -191 161 -212 141 -191 b 20 -261 29 -191 20 -236 b 115 -322 20 -309 83 -322 b 415 -93 200 -322 330 -231 l 677 338 b 762 527 741 443 762 491 b 693 616 762 576 748 616 b 612 548 650 616 612 584 b 638 440 612 487 638 472 b 612 368 638 420 636 409 l 472 123 l 469 125 l 409 477 "},"Á":{"x_min":18.0625,"x_max":994.453125,"ha":999,"o":"m 747 1144 l 556 1024 b 536 990 544 1016 537 999 l 536 985 b 552 969 536 974 541 969 b 615 985 565 969 583 973 l 827 1066 l 747 1144 m 879 126 l 729 870 b 681 913 722 899 712 913 b 616 870 666 913 636 902 l 170 130 b 54 47 150 95 119 55 l 34 44 b 20 31 29 42 20 40 l 18 0 l 20 -3 b 140 0 20 -3 86 0 b 312 -3 190 0 312 -3 l 315 0 l 319 31 b 309 44 319 40 316 42 l 294 47 b 247 101 259 52 229 70 l 376 315 b 402 334 384 328 391 334 l 665 334 l 709 101 b 651 47 715 65 684 52 l 636 44 b 626 31 629 42 626 40 l 622 0 l 625 -3 b 880 0 625 -3 830 0 b 986 -3 934 0 986 -3 l 988 0 l 994 31 b 980 44 994 40 986 42 l 961 47 b 879 126 894 55 886 85 m 438 399 b 436 416 429 399 429 405 l 595 685 l 652 399 l 438 399 "},"g":{"x_min":0.359375,"x_max":783.546875,"ha":714,"o":"m 659 427 b 625 540 659 455 653 501 b 665 577 626 551 633 568 b 719 527 665 577 671 527 b 783 586 759 527 783 557 b 705 639 783 615 755 639 b 569 587 690 639 622 633 b 445 616 541 605 505 616 b 152 388 232 616 152 459 b 200 236 152 333 161 279 b 98 74 148 194 98 123 b 144 2 98 62 100 30 b 0 -177 65 -40 0 -101 b 284 -330 0 -293 190 -330 b 655 -77 488 -330 655 -215 b 428 81 655 -38 620 81 b 332 74 403 81 364 79 b 274 70 306 72 285 70 b 234 116 250 70 234 84 b 259 187 234 147 243 167 b 367 172 286 176 321 172 b 659 427 538 172 659 280 m 239 -16 b 318 -13 264 -16 292 -13 b 519 -127 495 -13 519 -83 b 353 -266 519 -177 470 -266 b 142 -152 219 -266 142 -222 b 200 -15 142 -88 174 -37 b 239 -16 211 -16 224 -16 m 499 427 b 381 220 499 318 462 220 b 309 377 318 220 309 311 b 427 569 309 477 350 569 b 499 427 476 569 499 507 "},"²":{"x_min":152.71875,"x_max":576,"ha":461,"o":"m 281 795 b 349 838 304 795 344 812 l 349 862 b 349 877 348 866 348 869 b 410 912 354 893 376 912 b 451 858 423 912 451 900 b 448 834 451 851 449 843 b 360 711 437 784 412 748 b 152 500 211 601 166 568 l 494 500 l 538 609 l 477 623 b 441 554 462 588 455 575 l 293 554 b 462 704 304 590 334 618 b 573 837 520 745 563 788 b 576 861 576 845 576 854 b 424 954 576 933 499 954 b 237 844 294 954 245 881 b 236 837 237 841 236 838 b 281 795 236 816 252 795 "},"ë":{"x_min":95.46875,"x_max":714.90625,"ha":658,"o":"m 564 794 b 639 719 564 752 598 719 b 714 794 681 719 714 752 b 639 869 714 836 681 869 b 564 794 598 869 564 836 m 314 794 b 389 719 314 752 348 719 b 464 794 431 719 464 752 b 389 869 464 836 431 869 b 314 794 348 869 314 836 m 694 518 b 517 622 694 568 651 622 b 95 206 263 622 95 381 b 326 -8 95 86 164 -8 b 630 158 452 -8 551 48 l 569 198 b 376 68 485 109 426 68 b 269 237 327 68 269 116 b 270 263 269 243 269 252 b 694 518 645 316 694 466 m 539 519 b 278 311 539 384 381 327 b 485 568 327 505 431 568 b 539 519 517 568 539 554 "},"Î":{"x_min":51.390625,"x_max":627.125,"ha":476,"o":"m 480 1118 l 420 1118 b 262 987 370 1070 320 1026 l 283 958 b 438 1040 338 981 383 1004 b 568 958 479 1006 518 983 l 600 987 b 480 1118 556 1025 513 1068 m 376 169 l 473 726 b 619 850 494 841 520 845 b 622 898 629 858 629 890 b 418 895 554 897 497 895 b 209 898 336 895 279 897 b 209 850 200 890 202 858 b 309 787 283 845 309 844 b 302 726 309 770 306 751 l 205 169 b 58 45 184 54 156 50 b 56 -2 48 37 50 5 b 261 0 125 -1 181 0 b 469 -2 343 0 400 -1 b 470 45 479 5 477 37 b 368 106 395 48 368 51 b 376 169 368 122 370 143 "},"e":{"x_min":95.46875,"x_max":694.078125,"ha":658,"o":"m 694 512 b 517 616 694 562 651 616 b 95 201 263 616 95 376 b 326 -13 95 80 164 -13 b 630 152 452 -13 551 43 l 569 193 b 376 62 485 104 426 62 b 269 231 327 62 269 111 b 270 258 269 237 269 247 b 694 512 645 311 694 461 m 539 513 b 278 305 539 379 381 322 b 485 562 327 500 431 562 b 539 513 517 562 539 548 "},"Ã":{"x_min":18.0625,"x_max":994.453125,"ha":999,"o":"m 783 1038 b 716 1071 756 1038 736 1053 b 625 1114 693 1092 666 1114 b 487 973 565 1114 523 1063 l 520 962 b 600 1033 544 1013 563 1033 b 669 998 625 1033 647 1016 b 750 958 694 978 719 958 b 897 1102 813 958 863 1012 l 863 1116 b 783 1038 833 1051 812 1038 m 879 126 l 729 870 b 681 913 722 899 712 913 b 616 870 666 913 636 902 l 170 130 b 54 47 150 95 119 55 l 34 44 b 20 31 29 42 20 40 l 18 0 l 20 -3 b 140 0 20 -3 86 0 b 312 -3 190 0 312 -3 l 315 0 l 319 31 b 309 44 319 40 316 42 l 294 47 b 247 101 259 52 229 70 l 376 315 b 402 334 384 328 391 334 l 665 334 l 709 101 b 651 47 715 65 684 52 l 636 44 b 626 31 629 42 626 40 l 622 0 l 625 -3 b 880 0 625 -3 830 0 b 986 -3 934 0 986 -3 l 988 0 l 994 31 b 980 44 994 40 986 42 l 961 47 b 879 126 894 55 886 85 m 438 399 b 436 416 429 399 429 405 l 595 685 l 652 399 l 438 399 "},"J":{"x_min":63.890625,"x_max":736.109375,"ha":628,"o":"m 656 805 b 736 894 697 833 736 866 b 656 942 736 927 702 942 b 559 869 601 942 573 902 b 380 920 505 894 438 920 b 168 772 225 920 168 829 b 241 704 168 733 187 704 b 311 758 288 704 311 726 b 286 806 311 773 302 790 b 280 820 283 808 280 811 b 301 854 280 836 288 854 b 454 797 340 854 405 816 b 531 780 472 788 502 780 b 443 473 500 711 465 624 l 266 462 l 266 429 b 434 416 313 426 381 420 b 230 -168 408 81 344 -168 b 127 -90 204 -168 206 -90 b 63 -151 86 -90 63 -127 b 212 -227 63 -198 133 -227 b 565 180 295 -227 504 -163 b 605 417 579 259 593 338 l 677 426 l 683 465 b 619 499 637 469 619 472 b 656 805 619 536 645 745 "},"»":{"x_min":70.828125,"x_max":756.953125,"ha":778,"o":"m 319 -56 b 748 273 491 94 634 204 l 756 319 b 463 655 675 369 577 481 l 437 525 b 595 297 480 431 536 352 b 344 66 506 234 423 156 l 319 -56 m 70 -56 b 498 273 243 94 386 204 l 508 319 b 215 655 427 369 329 481 l 188 525 b 347 297 231 431 287 352 b 95 66 258 234 175 156 l 70 -56 "},"₨":{"x_min":-0.15625,"x_max":1137.34375,"ha":1090,"o":"m 401 761 l 398 761 b 401 761 398 761 399 761 m 669 183 l 645 38 b 579 126 610 44 590 84 l 510 379 b 709 597 576 406 685 479 b 715 640 713 611 715 626 b 676 754 715 680 701 718 l 674 752 b 465 818 633 812 544 818 b 176 797 329 818 213 806 l 172 773 b 209 759 170 765 180 759 l 256 763 b 258 755 258 763 258 761 b 251 713 258 748 255 733 l 124 93 b 77 43 119 62 105 43 l 45 43 b 2 27 20 43 5 37 l 0 9 l 9 -2 b 188 0 9 -2 144 0 b 363 -2 237 0 363 -2 l 377 9 l 381 27 b 345 43 384 37 366 43 l 313 43 b 283 72 292 43 283 52 b 285 93 283 79 284 84 l 337 348 b 367 336 363 345 366 341 l 433 100 b 583 -9 451 40 499 -9 b 640 -1 599 -9 620 -5 l 638 -9 b 699 1 680 -1 697 1 b 717 -1 704 1 709 1 b 835 -13 745 -9 785 -13 b 1088 145 915 -13 1063 18 b 1091 172 1091 155 1091 163 b 924 333 1091 250 1013 288 b 860 400 883 352 860 363 b 863 423 860 405 862 413 b 954 511 877 490 919 511 b 1034 363 972 511 1023 495 l 1122 365 l 1137 515 b 962 558 1109 531 1035 558 b 723 404 847 558 740 493 b 719 376 720 394 719 384 b 851 245 719 312 774 281 b 942 143 915 213 942 184 b 940 116 942 134 941 126 b 840 30 927 58 874 30 b 770 65 809 30 780 54 b 755 138 759 80 755 111 b 758 186 755 156 756 173 l 669 183 m 541 594 b 483 468 529 538 509 498 b 351 406 451 427 416 406 l 348 406 l 423 766 b 467 772 435 769 447 772 b 549 669 509 772 549 750 b 541 594 549 648 547 623 "},"₪":{"x_min":0,"x_max":0,"ha":1389},"©":{"x_min":118.171875,"x_max":887.609375,"ha":856,"o":"m 570 763 b 832 493 723 763 832 647 b 825 425 832 470 829 448 b 439 86 787 238 615 86 b 175 356 280 86 175 202 b 182 425 175 377 176 401 b 570 763 218 609 391 763 m 427 31 b 880 425 636 31 839 208 b 887 502 884 451 887 477 b 580 816 887 681 762 816 b 126 425 372 816 169 641 b 118 347 120 397 118 372 b 427 31 118 168 243 31 m 640 301 l 615 322 b 482 252 595 300 550 252 b 380 366 409 252 380 300 b 387 423 380 383 383 402 b 543 601 416 569 493 601 b 639 518 629 601 639 568 b 639 500 639 512 639 505 l 682 505 l 687 613 b 547 633 643 613 640 633 b 298 426 422 633 319 527 b 294 384 295 412 294 398 b 469 212 294 290 357 212 b 640 301 543 212 605 258 "},"ò":{"x_min":100,"x_max":731.953125,"ha":704,"o":"m 516 930 b 490 933 512 931 497 933 b 390 901 443 933 401 909 l 383 886 l 511 734 b 545 706 529 713 537 706 b 576 730 559 706 573 718 b 577 744 576 734 577 738 b 573 765 577 751 576 759 l 516 930 m 100 229 b 341 -13 100 154 143 -13 b 731 387 531 -13 731 168 b 488 616 731 487 680 616 b 100 229 238 616 100 395 m 275 240 b 462 559 275 361 327 559 b 559 377 544 559 559 462 b 376 45 559 288 520 45 b 275 240 344 45 275 69 "},"^":{"x_min":247,"x_max":700,"ha":753,"o":"m 529 750 l 587 475 l 700 475 l 609 902 l 512 902 l 247 475 l 359 475 l 529 750 "},"«":{"x_min":141.671875,"x_max":827.78125,"ha":778,"o":"m 579 654 b 150 323 406 502 263 393 l 141 277 b 434 -58 223 227 320 115 l 461 72 b 302 300 418 165 362 244 b 554 530 391 362 475 440 l 579 654 m 827 654 b 400 323 655 502 512 393 l 390 277 b 683 -58 470 227 569 115 l 709 72 b 551 300 666 165 611 244 b 802 530 640 362 723 440 l 827 654 "},"D":{"x_min":29.171875,"x_max":990.28125,"ha":956,"o":"m 31 0 l 450 0 b 983 429 648 0 922 87 b 990 508 987 455 990 481 b 584 897 990 727 826 897 l 190 897 l 186 894 l 180 862 b 188 851 179 855 184 851 l 208 851 b 272 808 252 851 272 838 b 270 790 272 802 270 795 l 150 106 b 66 45 143 62 119 45 l 47 45 b 34 33 41 45 36 41 l 29 2 l 31 0 m 312 104 l 433 793 b 525 841 441 837 477 841 b 811 511 738 841 811 683 b 801 394 811 472 806 431 b 419 55 752 122 590 55 b 309 87 330 55 309 61 b 312 104 309 91 311 97 "},"ÿ":{"x_min":21.328125,"x_max":763,"ha":708,"o":"m 563 794 b 638 719 563 752 596 719 b 713 794 679 719 713 752 b 638 869 713 836 679 869 b 563 794 596 869 563 836 m 313 794 b 388 719 313 752 346 719 b 463 794 429 719 463 752 b 388 869 463 836 429 869 b 313 794 346 869 313 836 m 410 477 b 325 616 396 552 386 616 b 125 486 240 616 194 569 b 160 443 131 466 139 455 b 231 502 178 470 211 502 b 251 473 239 502 246 494 b 364 -37 251 473 331 140 l 328 -94 b 188 -212 271 -188 213 -212 b 111 -191 161 -212 142 -191 b 21 -261 29 -191 21 -236 b 115 -322 21 -309 83 -322 b 415 -93 200 -322 331 -231 l 678 338 b 763 527 742 443 763 491 b 693 616 763 576 749 616 b 613 548 650 616 613 584 b 639 440 613 487 639 472 b 613 368 639 420 636 409 l 472 123 l 469 125 l 410 477 "},"í":{"x_min":149,"x_max":561.515625,"ha":457,"o":"m 462 923 l 317 748 b 301 715 304 733 301 719 b 318 700 301 706 308 700 b 371 719 332 700 353 705 l 561 861 l 553 894 b 483 926 542 902 533 926 b 462 923 476 926 467 925 m 393 451 b 435 616 408 522 435 616 b 426 620 435 619 432 620 b 160 577 383 605 260 588 l 154 536 l 212 530 b 237 498 225 527 237 522 b 229 444 237 486 235 468 l 167 165 b 149 54 157 122 149 77 b 224 -13 149 29 153 -13 b 449 113 296 -13 362 26 l 405 151 b 335 93 376 113 350 93 b 322 115 328 93 322 98 b 332 173 322 127 325 145 l 393 451 "},"w":{"x_min":141.671875,"x_max":1019.453125,"ha":975,"o":"m 141 485 b 176 442 147 466 155 455 b 247 502 194 470 227 502 b 262 473 255 502 261 493 l 298 21 b 343 -17 300 0 315 -17 b 398 21 369 -17 381 -6 l 555 291 b 570 306 561 302 566 306 b 583 291 576 306 580 299 l 648 16 b 691 -17 652 -1 663 -17 b 744 16 713 -17 731 -4 l 934 338 b 1019 527 994 441 1019 491 b 950 616 1019 575 1005 616 b 869 548 906 616 869 584 b 895 439 869 487 895 471 b 869 367 895 420 890 406 l 758 164 l 755 166 l 702 449 b 638 528 697 477 679 528 b 569 455 613 528 583 480 l 436 217 l 433 218 l 420 477 b 341 616 416 555 409 616 b 141 485 256 616 211 568 "},"$":{"x_min":77.984375,"x_max":640.109375,"ha":608,"o":"m 366 483 b 300 608 326 509 288 558 b 419 743 315 687 358 731 l 366 483 m 391 336 b 465 176 450 301 479 247 b 330 36 444 77 381 44 l 391 336 m 129 13 b 265 -16 154 13 193 -11 l 245 -112 l 301 -112 l 320 -16 b 601 216 502 -5 579 108 b 418 462 629 355 497 436 l 474 744 b 563 604 542 736 555 693 l 566 579 l 627 584 b 640 783 629 652 630 720 b 484 793 605 777 551 790 l 499 870 l 444 870 l 429 791 b 180 602 336 781 205 720 b 341 359 151 451 258 391 l 275 36 b 159 206 189 48 164 122 l 97 202 b 77 -1 93 124 89 49 b 129 13 107 -1 107 13 "},"\\":{"x_min":213,"x_max":425.5,"ha":442,"o":"m 318 969 l 213 969 l 321 -66 l 425 -66 l 318 969 "},"Ì":{"x_min":51.390625,"x_max":627.125,"ha":476,"o":"m 358 1134 l 243 1072 l 444 984 b 501 968 472 972 488 968 b 525 991 520 968 525 984 b 508 1018 525 1000 520 1008 l 358 1134 m 376 169 l 473 726 b 619 850 494 841 520 845 b 622 898 629 858 629 890 b 418 895 554 897 497 895 b 209 898 336 895 279 897 b 209 850 200 890 202 858 b 309 787 283 845 309 844 b 302 726 309 770 306 751 l 205 169 b 58 45 184 54 156 50 b 56 -2 48 37 50 5 b 261 0 125 -1 181 0 b 469 -2 343 0 400 -1 b 470 45 479 5 477 37 b 368 106 395 48 368 51 b 376 169 368 122 370 143 "},"µ":{"x_min":11.078125,"x_max":743.390625,"ha":721,"o":"m 84 -322 b 182 -233 127 -322 166 -293 b 188 -133 187 -210 187 -169 b 201 -4 188 -93 194 -48 b 262 -16 219 -12 240 -16 b 471 59 339 -16 404 13 b 554 -16 480 15 505 -16 b 736 97 650 -16 693 26 l 694 115 b 629 58 665 70 648 58 b 621 74 623 58 621 63 b 639 174 621 91 628 124 l 743 622 l 575 602 l 466 135 b 305 56 428 94 361 56 b 264 117 275 56 264 80 b 276 208 264 142 268 173 l 339 476 b 367 621 348 520 367 621 l 188 602 b 169 448 188 602 176 483 l 109 190 b 98 63 98 144 104 99 b 87 -5 94 35 91 13 b 44 -127 76 -55 58 -91 b 12 -226 30 -164 19 -197 b 11 -244 11 -232 11 -239 b 84 -322 11 -293 59 -322 "},"Ç":{"x_min":114.0625,"x_max":936.28125,"ha":885,"o":"m 491 -13 l 493 -13 l 426 -119 l 439 -143 b 504 -122 472 -126 486 -122 b 543 -162 518 -122 543 -140 l 543 -169 b 465 -219 536 -202 490 -219 b 368 -197 448 -219 414 -218 l 343 -229 b 465 -259 383 -248 412 -259 b 655 -162 566 -259 643 -224 b 657 -145 657 -156 657 -149 b 554 -72 657 -98 616 -72 l 530 -74 l 572 -6 b 872 179 680 13 780 77 l 837 212 b 501 47 714 91 608 47 b 289 348 350 47 289 188 b 300 463 289 386 293 425 b 646 857 348 738 516 857 b 871 607 816 857 852 738 l 923 618 b 936 852 923 694 927 772 b 655 913 868 852 833 913 b 122 437 409 913 169 709 b 114 347 116 407 114 376 b 491 -13 114 155 227 -13 "},"-":{"x_min":130.5625,"x_max":563.890625,"ha":519,"o":"m 486 323 b 563 379 518 323 559 361 l 563 384 b 519 408 563 397 552 408 l 205 408 b 130 352 175 408 136 376 l 130 348 b 175 323 130 336 144 323 l 486 323 "},"Q":{"x_min":135.0625,"x_max":1074.09375,"ha":1019,"o":"m 155 -212 l 203 -254 b 318 -172 242 -190 297 -172 b 692 -304 447 -172 511 -304 b 912 -190 779 -304 844 -267 l 894 -159 b 764 -210 857 -197 804 -210 b 397 -97 642 -210 550 -97 b 382 -98 392 -97 387 -98 b 540 -16 442 -59 497 -33 b 1074 543 868 -5 1074 272 b 685 914 1074 771 903 914 b 135 343 361 914 135 614 b 430 -9 135 150 254 22 b 155 -212 319 -62 214 -145 m 657 857 b 887 558 787 857 887 755 b 558 40 887 315 756 40 b 322 340 421 40 322 148 b 657 857 322 575 455 857 "},"M":{"x_min":20.828125,"x_max":1227.78125,"ha":1163,"o":"m 894 124 b 893 107 894 118 893 112 b 866 49 887 79 879 49 l 830 49 b 783 32 808 49 786 44 l 780 11 l 791 -1 b 959 1 791 -1 911 1 b 1123 -1 1013 1 1123 -1 l 1140 11 l 1143 32 b 1100 49 1145 43 1131 49 l 1065 49 b 1045 90 1050 49 1045 65 b 1048 125 1045 101 1047 114 l 1106 794 l 1109 808 b 1140 849 1113 836 1125 849 l 1177 849 b 1225 864 1190 849 1220 850 l 1227 885 l 1223 899 l 1016 899 l 629 233 l 465 899 l 243 899 l 226 883 l 222 864 b 261 849 222 857 231 850 l 302 849 b 319 825 313 849 319 842 b 318 807 319 819 319 814 l 316 800 b 315 794 316 797 315 796 l 147 124 b 106 49 137 90 125 49 l 70 49 b 23 32 41 49 26 43 l 20 11 l 29 -1 b 150 1 29 -1 101 1 b 300 -1 202 1 300 -1 l 311 12 l 313 32 b 273 49 316 43 293 49 l 237 49 b 226 71 230 49 226 57 b 230 107 226 80 227 92 b 233 122 231 111 231 117 l 354 607 l 501 10 b 537 -16 505 -7 526 -16 b 583 10 561 -16 575 -3 l 938 619 l 894 124 "},"C":{"x_min":114.0625,"x_max":936.28125,"ha":885,"o":"m 491 -13 b 872 179 632 -13 759 54 l 837 212 b 501 47 714 91 608 47 b 289 348 350 47 289 188 b 300 463 289 386 293 425 b 646 857 348 738 516 857 b 871 607 816 857 852 738 l 923 618 b 936 852 923 694 927 772 b 655 913 868 852 833 913 b 122 437 409 913 169 709 b 114 347 116 407 114 376 b 491 -13 114 155 227 -13 "},"!":{"x_min":111.109375,"x_max":448.609375,"ha":349,"o":"m 197 140 b 111 48 162 140 111 112 b 179 -13 111 12 140 -13 b 265 68 231 -13 265 34 b 197 140 265 105 236 140 m 359 913 b 233 809 318 913 250 887 b 220 665 223 755 220 700 b 213 543 220 636 219 595 b 188 336 206 469 198 388 b 183 291 186 318 183 304 b 227 261 183 272 191 261 b 290 319 279 261 284 293 b 355 543 298 356 319 431 b 398 662 370 588 386 629 b 445 809 416 708 434 761 b 448 834 447 818 448 826 b 359 913 448 888 405 913 "},"ç":{"x_min":99.9375,"x_max":671.046875,"ha":617,"o":"m 304 -113 b 343 -154 317 -113 343 -132 l 343 -161 b 265 -211 336 -194 290 -211 b 167 -188 248 -211 213 -209 l 143 -220 b 265 -251 183 -240 212 -251 b 455 -154 366 -251 443 -216 b 457 -137 457 -148 457 -141 b 354 -63 457 -90 416 -63 l 330 -66 l 363 -12 b 600 113 470 -4 539 51 l 544 161 b 373 56 489 97 405 56 b 272 240 337 56 272 81 b 472 562 272 441 380 562 b 515 513 483 562 515 554 b 509 448 515 472 509 474 b 584 398 509 424 523 398 b 671 467 605 398 671 416 b 468 616 671 537 621 616 b 99 211 294 616 99 441 b 290 -11 99 130 173 11 l 226 -111 l 238 -134 b 304 -113 272 -118 286 -113 "},"È":{"x_min":32.21875,"x_max":815.1875,"ha":747,"o":"m 571 1134 l 455 1072 l 657 984 b 713 968 684 972 701 968 b 737 991 733 968 737 984 b 720 1018 737 1000 733 1008 l 571 1134 m 35 0 l 686 0 b 763 234 708 75 737 161 l 708 248 b 532 63 668 145 605 63 l 328 63 b 314 80 318 63 314 68 b 316 104 314 87 314 94 l 378 448 l 528 448 b 557 388 553 448 557 425 b 557 350 557 376 557 363 b 576 336 555 344 562 336 l 604 336 l 614 348 b 628 477 615 372 619 427 b 660 606 636 529 653 584 l 654 620 l 626 620 b 603 605 612 620 603 611 b 537 506 585 550 571 506 l 387 506 l 437 793 b 464 833 443 822 451 833 l 637 833 b 747 659 726 833 741 730 l 802 672 b 815 897 802 743 805 816 l 193 897 l 189 894 l 183 862 b 191 851 182 855 186 851 l 211 851 b 275 806 255 851 275 838 b 273 790 275 801 273 795 l 153 106 b 68 45 144 62 122 45 l 50 45 b 37 33 44 45 39 41 l 32 2 l 35 0 "},"{":{"x_min":121,"x_max":598,"ha":436,"o":"m 467 783 b 509 902 480 843 493 883 b 592 962 534 936 561 955 l 598 988 b 382 936 493 986 414 968 b 303 773 344 898 318 844 l 250 513 b 125 347 235 444 207 369 l 123 340 b 189 243 172 327 189 291 b 181 170 189 222 185 197 l 132 -69 b 121 -161 125 -104 121 -134 b 139 -245 121 -195 127 -225 b 335 -298 157 -277 228 -295 l 341 -273 b 284 -213 327 -270 300 -263 b 278 -177 280 -205 278 -193 b 289 -90 278 -155 282 -126 l 335 136 b 348 230 343 173 348 204 b 275 344 348 283 328 316 b 417 534 355 377 393 419 l 467 783 "},"X":{"x_min":6.9375,"x_max":1069.453125,"ha":943,"o":"m 183 861 b 197 851 181 854 187 851 b 306 762 219 851 268 840 l 448 478 b 440 404 466 439 468 432 l 200 144 b 29 46 148 90 108 46 b 12 36 20 46 13 43 l 6 1 l 6 -1 b 119 1 6 -1 113 1 b 294 -1 138 1 294 -1 l 298 1 l 304 35 b 298 46 305 40 304 46 b 262 107 268 46 219 49 b 472 358 325 189 400 278 b 519 342 495 383 500 385 l 640 101 b 586 46 663 51 666 46 b 576 36 581 46 577 42 l 570 1 l 573 -1 b 795 1 573 -1 787 1 b 937 -1 812 1 900 0 l 938 1 l 944 35 b 937 46 945 40 944 46 b 812 142 879 46 840 87 l 659 433 b 655 532 626 497 626 501 l 888 767 b 1050 851 934 814 981 851 b 1063 861 1062 851 1062 857 l 1069 896 l 1068 897 b 936 896 1043 897 943 896 b 776 897 922 896 805 897 l 773 896 l 768 861 b 775 851 766 854 770 851 b 815 794 805 851 850 846 b 618 572 766 728 683 640 b 580 575 597 551 594 550 l 477 794 b 536 851 458 837 468 851 b 544 861 540 851 544 854 l 551 896 b 545 897 550 896 545 897 b 330 896 504 897 337 896 b 197 897 316 896 231 897 l 190 896 l 183 861 "},"ô":{"x_min":100.140625,"x_max":732.078125,"ha":704,"o":"m 558 895 l 489 895 b 311 716 436 831 370 772 l 339 691 b 505 808 401 729 443 755 b 623 691 541 758 576 729 l 662 716 b 558 895 625 772 586 830 m 100 229 b 341 -13 100 154 143 -13 b 732 387 532 -13 732 168 b 489 616 732 487 680 616 b 100 229 239 616 100 395 m 275 240 b 462 559 275 361 327 559 b 559 377 544 559 559 462 b 376 45 559 288 520 45 b 275 240 344 45 275 69 "},"¼":{"x_min":96.75,"x_max":990.109375,"ha":950,"o":"m 310 532 b 238 471 303 491 285 471 l 227 471 b 214 460 220 471 216 466 l 209 437 l 212 435 b 341 437 212 435 291 437 b 492 435 395 437 492 435 l 495 437 l 499 460 b 491 471 500 466 496 471 l 478 471 b 431 532 432 471 423 491 l 503 887 l 439 887 b 252 803 364 846 325 829 l 256 755 b 364 790 289 766 352 787 b 352 737 355 783 360 776 l 310 532 m 904 251 l 856 251 b 782 215 856 250 782 215 l 759 94 l 688 94 b 742 186 705 118 730 155 b 791 340 761 237 779 286 l 696 340 b 645 193 685 290 662 228 b 548 57 625 153 593 101 l 553 41 l 748 41 l 731 -38 b 718 -65 727 -62 724 -65 l 693 -65 b 660 -77 670 -65 662 -73 l 655 -109 l 771 -108 l 890 -109 l 895 -78 b 869 -65 897 -73 892 -65 l 846 -65 b 845 -37 841 -65 841 -58 l 860 41 l 933 41 l 942 94 l 871 94 l 904 251 m 919 835 l 96 -74 l 167 -74 l 990 835 l 919 835 "},"#":{"x_min":73.609375,"x_max":729.171875,"ha":643,"o":"m 579 468 l 702 468 l 729 547 l 605 547 l 690 779 l 584 779 l 501 547 l 408 547 l 494 779 l 388 779 l 304 547 l 180 547 l 152 468 l 276 468 l 226 329 l 101 329 l 73 251 l 197 251 l 113 18 l 218 18 l 302 251 l 394 251 l 311 18 l 415 18 l 500 251 l 625 251 l 651 329 l 527 329 l 579 468 m 423 329 l 330 329 l 381 468 l 473 468 l 423 329 "},"Ê":{"x_min":32.21875,"x_max":815.1875,"ha":747,"o":"m 616 1118 l 557 1118 b 398 987 507 1070 457 1026 l 419 958 b 575 1040 475 981 519 1004 b 704 958 615 1006 654 983 l 736 987 b 616 1118 693 1025 650 1068 m 35 0 l 686 0 b 763 234 708 75 737 161 l 708 248 b 532 63 668 145 605 63 l 328 63 b 314 80 318 63 314 68 b 316 104 314 87 314 94 l 378 448 l 528 448 b 557 388 553 448 557 425 b 557 350 557 376 557 363 b 576 336 555 344 562 336 l 604 336 l 614 348 b 628 477 615 372 619 427 b 660 606 636 529 653 584 l 654 620 l 626 620 b 603 605 612 620 603 611 b 537 506 585 550 571 506 l 387 506 l 437 793 b 464 833 443 822 451 833 l 637 833 b 747 659 726 833 741 730 l 802 672 b 815 897 802 743 805 816 l 193 897 l 189 894 l 183 862 b 191 851 182 855 186 851 l 211 851 b 275 806 255 851 275 838 b 273 790 275 801 273 795 l 153 106 b 68 45 144 62 122 45 l 50 45 b 37 33 44 45 39 41 l 32 2 l 35 0 "},")":{"x_min":15.28125,"x_max":523.609375,"ha":492,"o":"m 509 348 b 523 490 513 369 523 420 b 318 995 523 620 488 816 l 259 951 b 366 570 287 912 366 791 b 343 348 366 505 359 431 b 15 -252 268 -18 68 -204 l 52 -300 b 509 348 266 -143 458 95 "},"Å":{"x_min":17.9375,"x_max":994.28125,"ha":999,"o":"m 713 1066 b 769 1009 747 1066 769 1041 b 767 994 769 1003 769 999 b 684 922 760 958 724 922 b 629 980 649 922 629 949 b 630 994 629 984 630 988 b 713 1066 638 1031 674 1066 m 879 126 l 729 870 b 723 887 727 876 724 883 b 817 994 769 905 808 947 b 820 1016 819 1001 820 1009 b 722 1109 820 1070 777 1109 b 580 994 656 1109 592 1056 b 577 972 579 987 577 978 b 629 887 577 933 597 902 b 616 870 624 883 620 877 l 170 130 b 54 47 149 95 119 55 l 34 44 b 20 31 29 42 20 40 l 17 0 l 20 -3 b 140 0 20 -3 86 0 b 312 -3 190 0 312 -3 l 315 0 l 319 31 b 309 44 319 40 316 42 l 294 47 b 247 101 259 52 229 70 l 376 315 b 402 334 384 328 391 334 l 665 334 l 709 101 b 651 47 715 65 684 52 l 635 44 b 626 31 629 42 626 40 l 622 0 l 624 -3 b 880 0 624 -3 830 0 b 985 -3 934 0 985 -3 l 988 0 l 994 31 b 980 44 994 40 985 42 l 960 47 b 879 126 894 55 885 85 m 438 399 b 436 416 429 399 429 405 l 595 685 l 652 399 l 438 399 "},"ø":{"x_min":76.390625,"x_max":784.8125,"ha":704,"o":"m 559 380 l 559 377 b 376 45 559 288 520 45 b 288 123 352 45 311 57 l 559 380 m 554 451 l 276 188 b 273 238 275 204 273 220 b 461 558 273 359 326 558 b 554 451 519 558 544 509 m 744 632 l 665 557 b 487 615 627 591 570 615 b 98 227 237 615 98 394 b 151 70 98 188 111 123 l 76 -1 l 113 -42 l 191 30 b 341 -15 227 4 275 -15 b 732 386 532 -15 732 166 b 698 513 732 427 722 473 l 784 594 l 744 632 "},"â":{"x_min":108.328125,"x_max":773.609375,"ha":750,"o":"m 566 897 l 497 897 b 319 718 444 833 379 773 l 347 693 b 513 809 409 730 451 756 b 631 693 550 759 584 730 l 670 718 b 566 897 633 773 594 831 m 472 54 b 558 -13 472 29 487 -13 b 773 113 630 -13 675 16 l 738 145 b 659 93 698 109 675 93 b 647 115 652 93 647 98 b 656 173 647 127 650 145 l 722 445 b 766 615 734 498 766 615 b 763 620 766 618 765 620 l 687 616 b 608 544 665 590 640 566 b 491 616 594 586 563 616 b 108 183 331 616 108 401 b 300 -13 108 105 154 -13 b 470 81 354 -13 384 0 l 473 80 b 472 54 472 72 472 59 m 518 270 b 347 55 472 155 386 55 b 277 209 286 55 277 134 b 495 562 277 352 384 562 b 561 459 536 562 561 513 b 518 270 561 437 545 344 "},"}":{"x_min":-21,"x_max":455,"ha":436,"o":"m 109 -97 b 67 -216 97 -156 83 -197 b -15 -276 42 -250 15 -269 l -21 -302 b 194 -250 83 -300 162 -281 b 273 -87 231 -212 257 -158 l 325 172 b 450 338 339 241 368 316 l 452 345 b 387 443 403 358 387 394 b 395 515 387 463 389 488 l 443 755 b 455 847 450 790 455 820 b 436 931 455 881 448 911 b 241 984 418 963 348 981 l 235 959 b 292 900 249 956 276 950 b 298 863 296 891 298 879 b 287 776 298 841 294 812 l 241 550 b 229 455 233 512 229 481 b 301 341 229 402 248 369 b 159 151 221 308 183 266 l 109 -97 "},"Ä":{"x_min":18.0625,"x_max":994.453125,"ha":999,"o":"m 879 126 l 729 870 b 681 913 722 899 712 913 b 616 870 666 913 636 902 l 170 130 b 54 47 150 95 119 55 l 34 44 b 20 31 29 42 20 40 l 18 0 l 20 -3 b 140 0 20 -3 86 0 b 312 -3 190 0 312 -3 l 315 0 l 319 31 b 309 44 319 40 316 42 l 294 47 b 247 101 259 52 229 70 l 376 315 b 402 334 384 328 391 334 l 665 334 l 709 101 b 651 47 715 65 684 52 l 636 44 b 626 31 629 42 626 40 l 622 0 l 625 -3 b 880 0 625 -3 830 0 b 986 -3 934 0 986 -3 l 988 0 l 994 31 b 980 44 994 40 986 42 l 961 47 b 879 126 894 55 886 85 m 438 399 b 436 416 429 399 429 405 l 595 685 l 652 399 l 438 399 m 761 972 b 836 897 761 930 794 897 b 911 972 877 897 911 930 b 836 1047 911 1013 877 1047 b 761 972 794 1047 761 1013 m 452 972 b 527 897 452 930 486 897 b 602 972 569 897 602 930 b 527 1047 602 1013 569 1047 b 452 972 486 1047 452 1013 "},"¸":{"x_min":234.671875,"x_max":556.890625,"ha":785,"o":"m 397 -109 b 436 -147 411 -109 436 -125 l 436 -152 b 358 -202 429 -186 383 -202 b 261 -180 341 -202 306 -201 l 234 -218 b 356 -248 276 -237 304 -248 b 554 -145 459 -248 543 -208 b 556 -130 555 -141 556 -136 b 445 -55 556 -83 511 -55 l 434 -55 l 481 20 l 394 20 l 313 -102 l 331 -126 b 397 -109 365 -111 377 -109 "},"a":{"x_min":108.328125,"x_max":773.609375,"ha":750,"o":"m 472 54 b 558 -13 472 29 487 -13 b 773 113 630 -13 675 16 l 738 145 b 659 93 698 109 675 93 b 647 115 652 93 647 98 b 656 173 647 127 650 145 l 722 445 b 766 615 734 498 766 615 b 763 620 766 618 765 620 l 687 616 b 608 544 665 590 640 566 b 491 616 594 586 563 616 b 108 183 331 616 108 401 b 300 -13 108 105 154 -13 b 470 81 354 -13 384 0 l 473 80 b 472 54 472 72 472 59 m 518 270 b 347 55 472 155 386 55 b 277 209 286 55 277 134 b 495 562 277 352 384 562 b 561 459 536 562 561 513 b 518 270 561 437 545 344 "},"=":{"x_min":120.828125,"x_max":776.390625,"ha":765,"o":"m 776 448 l 172 448 l 156 369 l 759 369 l 776 448 m 741 275 l 137 275 l 120 197 l 725 197 l 741 275 "},"N":{"x_min":73.609375,"x_max":1183.328125,"ha":1031,"o":"m 309 759 l 194 106 b 109 47 186 60 161 53 l 90 44 b 76 31 84 42 76 40 l 73 0 l 76 -3 b 215 0 76 -3 161 0 b 384 -3 265 0 384 -3 l 387 0 l 391 31 b 381 44 391 40 387 42 l 362 47 b 294 106 329 51 286 63 l 383 608 b 398 637 384 619 390 637 b 420 615 405 637 416 622 l 786 20 b 856 -16 795 5 813 -16 b 926 34 897 -16 920 3 l 1058 790 b 1147 848 1063 827 1091 840 l 1166 851 b 1180 862 1173 851 1179 855 l 1183 895 l 1180 897 b 1015 895 1180 897 1063 895 b 872 897 961 895 872 897 l 869 895 l 865 862 b 875 851 865 855 869 851 l 894 848 b 958 790 943 840 966 837 l 859 237 l 856 237 l 440 897 b 172 898 386 897 172 898 l 169 895 l 172 863 b 186 851 172 853 180 851 l 205 848 b 309 759 270 838 295 795 "},"ú":{"x_min":109.71875,"x_max":794.453125,"ha":779,"o":"m 609 919 l 463 744 b 448 711 451 729 448 715 b 465 695 448 702 455 695 b 518 715 479 695 500 701 l 708 856 l 700 890 b 630 922 688 898 680 922 b 609 919 623 922 613 920 m 388 437 b 408 548 398 479 408 525 b 331 616 408 573 404 616 b 109 488 259 616 205 588 b 148 451 119 472 130 459 b 223 509 179 490 206 509 b 234 487 229 509 234 502 b 225 429 234 475 230 455 l 165 195 b 150 88 158 170 150 113 b 277 -13 150 16 179 -13 b 506 109 350 -13 426 19 b 494 54 494 79 494 59 b 569 -13 494 29 498 -13 b 794 113 641 -13 708 26 l 751 151 b 679 93 722 113 694 93 b 668 115 672 93 668 98 b 675 173 668 127 668 147 l 781 619 b 618 601 737 611 644 601 l 554 327 b 345 68 511 145 386 68 b 318 122 323 68 318 86 b 330 212 318 144 322 181 l 388 437 "},"2":{"x_min":81.609375,"x_max":720.828125,"ha":678,"o":"m 214 613 l 214 605 b 278 558 214 579 241 558 b 362 612 310 558 353 573 b 362 640 363 619 364 630 b 364 673 360 650 362 661 b 477 751 370 704 405 751 b 554 648 508 751 554 726 b 548 595 554 633 551 615 b 403 376 529 508 487 448 l 287 276 b 81 0 123 134 96 77 l 565 0 l 631 180 l 560 193 b 456 90 524 115 495 90 l 255 90 b 453 306 267 154 394 258 b 715 601 591 419 694 502 b 720 648 719 618 720 634 b 496 805 720 772 605 805 b 214 613 334 805 231 694 "},"ü":{"x_min":109.71875,"x_max":794.453125,"ha":779,"o":"m 601 794 b 676 719 601 752 634 719 b 751 794 718 719 751 752 b 676 869 751 836 718 869 b 601 794 634 869 601 836 m 351 794 b 426 719 351 752 384 719 b 501 794 468 719 501 752 b 426 869 501 836 468 869 b 351 794 384 869 351 836 m 388 437 b 408 548 398 479 408 525 b 331 616 408 573 404 616 b 109 488 259 616 205 588 b 148 451 119 472 130 459 b 223 509 179 490 206 509 b 234 487 229 509 234 502 b 225 429 234 475 230 455 l 165 195 b 150 88 158 170 150 113 b 277 -13 150 16 179 -13 b 506 109 350 -13 426 19 b 494 54 494 79 494 59 b 569 -13 494 29 498 -13 b 794 113 641 -13 708 26 l 751 151 b 679 93 722 113 694 93 b 668 115 672 93 668 98 b 675 173 668 127 668 147 l 781 619 b 618 601 737 611 644 601 l 554 327 b 345 68 511 145 386 68 b 318 122 323 68 318 86 b 330 212 318 144 322 181 l 388 437 "},"¯":{"x_min":223.609375,"x_max":672.21875,"ha":585,"o":"m 601 726 b 672 772 634 726 668 754 l 672 776 b 629 798 672 786 661 798 l 293 798 b 223 752 261 798 227 770 l 223 750 b 265 726 223 737 234 726 l 601 726 "},"Z":{"x_min":28.96875,"x_max":944.734375,"ha":831,"o":"m 762 0 b 837 229 780 77 809 157 l 783 236 b 586 61 738 136 687 61 l 288 61 b 275 100 247 61 252 73 l 900 820 b 944 889 933 859 941 873 b 916 902 945 898 943 902 b 831 897 900 902 875 901 l 356 897 b 251 914 293 897 300 909 b 180 682 233 839 201 739 l 231 675 b 413 836 277 770 313 836 l 700 836 b 697 804 723 836 708 818 l 45 52 b 29 20 36 41 31 30 b 51 0 27 7 33 0 l 762 0 "},"u":{"x_min":109.71875,"x_max":794.453125,"ha":779,"o":"m 388 437 b 408 548 398 479 408 525 b 331 616 408 573 404 616 b 109 488 259 616 205 588 b 148 451 119 472 130 459 b 223 509 179 490 206 509 b 234 487 229 509 234 502 b 225 429 234 475 230 455 l 165 195 b 150 88 158 170 150 113 b 277 -13 150 16 179 -13 b 506 109 350 -13 426 19 b 494 54 494 79 494 59 b 569 -13 494 29 498 -13 b 794 113 641 -13 708 26 l 751 151 b 679 93 722 113 694 93 b 668 115 672 93 668 98 b 675 173 668 127 668 147 l 781 619 b 618 601 737 611 644 601 l 554 327 b 345 68 511 145 386 68 b 318 122 323 68 318 86 b 330 212 318 144 322 181 l 388 437 "},"Ó":{"x_min":134.71875,"x_max":1073.609375,"ha":1019,"o":"m 752 1144 l 562 1025 b 541 990 550 1016 543 1000 l 541 986 b 558 969 541 975 547 969 b 620 986 570 969 588 973 l 833 1066 l 752 1144 m 520 -16 b 1073 543 859 -16 1073 268 b 684 913 1073 770 902 913 b 134 343 361 913 134 613 b 520 -16 134 119 295 -16 m 656 856 b 887 558 787 856 887 755 b 558 40 887 315 755 40 b 322 340 420 40 322 148 b 656 856 322 575 455 856 "},"k":{"x_min":115.28125,"x_max":836.109375,"ha":808,"o":"m 461 809 l 495 955 b 479 969 495 965 491 969 b 226 933 441 955 283 937 l 220 891 b 227 884 220 887 222 884 l 270 881 b 300 842 288 881 300 873 b 290 773 300 827 295 802 l 115 0 l 129 -28 l 280 16 l 343 298 l 347 315 l 380 337 l 383 328 l 463 92 b 579 -14 479 38 498 -14 b 769 99 629 -14 697 6 l 726 126 b 666 78 700 90 683 78 b 606 173 645 78 627 117 l 508 419 b 683 537 581 484 662 537 b 768 469 711 537 706 469 b 836 535 795 469 836 478 b 744 616 836 584 795 616 b 579 552 690 616 650 603 b 366 402 579 552 422 444 l 461 809 "},"₯":{"x_min":-11.109375,"x_max":1504.171875,"ha":1475,"o":"m 737 918 l 733 952 b 480 800 625 908 538 862 b 162 687 377 782 277 745 l 176 641 b 430 739 266 680 358 719 b 288 475 379 669 333 584 l 136 94 b 80 43 122 58 106 43 l 44 43 b 0 27 18 43 4 36 l -11 -2 b 180 1 38 -1 126 0 b 227 0 197 1 209 1 b 362 -1 255 0 293 -1 b 918 458 654 -1 868 215 b 925 529 923 482 925 505 b 619 809 925 693 802 809 l 616 809 b 737 918 656 858 693 889 m 802 -256 b 909 -36 837 -206 875 -117 b 927 5 915 -22 920 -8 b 1019 -4 951 -1 980 -4 b 1498 372 1277 -4 1469 226 b 1504 411 1502 384 1504 398 b 1302 565 1504 502 1431 565 b 1065 491 1236 565 1141 544 b 877 241 1012 454 950 405 l 772 -2 b 625 -274 702 -158 658 -237 l 633 -311 l 802 -256 m 447 473 b 579 757 502 609 544 700 b 761 543 709 750 761 657 b 751 454 761 515 756 484 b 347 51 713 268 605 51 b 288 65 297 51 288 54 l 288 76 b 297 98 291 86 291 90 l 447 473 m 1326 368 b 1054 43 1297 222 1188 43 b 972 108 1033 43 1011 61 l 1054 297 b 1250 507 1130 473 1201 507 b 1331 422 1298 507 1331 486 b 1326 368 1331 405 1330 389 "},"Ù":{"x_min":184.71875,"x_max":1120.828125,"ha":949,"o":"m 618 1135 l 502 1073 l 704 985 b 761 969 731 973 748 969 b 784 992 780 969 784 985 b 768 1019 784 1001 780 1009 l 618 1135 m 886 790 l 815 383 b 526 49 788 233 730 49 b 361 237 477 49 361 87 b 376 372 361 281 369 327 l 450 790 b 537 851 456 828 480 851 l 556 851 b 569 862 563 851 568 855 l 576 895 l 573 897 b 383 895 573 897 433 895 b 194 897 329 895 194 897 l 191 895 l 184 862 b 194 851 184 853 188 851 l 213 851 b 281 808 261 851 281 838 b 279 790 281 802 280 795 l 198 326 b 190 242 193 295 190 267 b 486 -16 190 28 365 -16 b 927 406 793 -16 883 159 l 995 790 b 1081 851 1002 828 1025 851 l 1101 851 b 1115 862 1108 851 1113 855 l 1120 895 l 1118 897 b 959 895 1118 897 1009 895 b 801 897 905 895 801 897 l 798 895 l 791 862 b 801 851 791 855 795 851 l 820 851 b 888 808 868 851 888 838 b 886 790 888 802 887 795 "},"€":{"x_min":66.78125,"x_max":702.9375,"ha":615,"o":"m 108 425 l 151 425 b 143 387 147 412 144 400 b 137 361 140 377 139 369 l 101 361 l 68 318 l 66 306 l 132 306 b 371 -16 119 108 214 -16 b 534 4 440 -16 498 6 b 625 213 555 59 602 150 l 576 223 b 396 41 529 131 491 41 b 286 306 287 41 261 126 l 486 306 l 522 361 l 294 361 b 302 402 297 373 300 387 l 307 425 l 555 425 l 591 479 l 319 479 b 526 763 358 636 422 763 b 639 581 623 763 633 675 l 690 588 b 702 791 690 652 693 733 b 539 812 665 788 608 812 b 166 479 387 812 236 683 l 144 479 l 111 437 l 108 425 "},"₦":{"x_min":0,"x_max":0,"ha":1389},"¢":{"x_min":105.921875,"x_max":676.046875,"ha":611,"o":"m 290 136 b 277 238 282 162 277 195 b 477 561 277 440 386 561 b 495 557 481 561 488 561 l 290 136 m 580 728 l 523 612 b 473 615 508 615 491 615 b 105 209 300 615 105 440 b 230 13 105 147 153 58 l 161 -129 l 216 -140 l 280 -7 b 336 -13 297 -12 316 -13 b 605 113 463 -13 538 45 l 549 161 b 379 56 494 97 411 56 b 322 79 362 56 341 61 l 517 482 b 515 448 516 469 515 464 b 589 398 515 425 528 398 b 676 468 610 398 676 416 b 576 600 676 518 649 573 l 635 722 l 580 728 "},"ß":{"x_min":-130.5625,"x_max":841.671875,"ha":817,"o":"m 441 180 b 368 80 416 180 368 150 b 498 -13 368 31 405 -13 b 802 300 666 -13 802 168 b 612 568 802 426 694 508 l 613 570 b 841 841 716 637 841 727 b 644 969 841 902 770 969 b 286 662 498 969 347 887 b 212 602 275 625 255 602 b 170 556 179 602 170 568 b 177 554 170 554 173 554 l 238 554 b 255 527 256 554 258 543 l 194 195 b 70 -247 168 58 112 -205 b 13 -272 48 -268 31 -272 b -76 -208 -31 -272 -19 -208 b -130 -261 -118 -208 -130 -243 b -12 -330 -130 -283 -108 -330 b 173 -243 62 -330 134 -298 b 416 566 273 -100 326 187 b 622 919 466 777 501 919 b 681 841 673 919 681 893 b 504 568 681 702 540 591 l 500 550 b 626 280 580 476 626 383 b 508 36 626 168 575 36 b 455 66 480 36 455 38 b 484 138 455 91 484 106 b 441 180 484 172 458 180 "},"é":{"x_min":95.46875,"x_max":694.015625,"ha":658,"o":"m 591 923 l 445 748 b 430 715 432 733 430 719 b 446 700 430 706 437 700 b 499 719 460 700 481 705 l 689 861 l 681 894 b 612 926 670 902 662 926 b 591 923 605 926 595 925 m 694 512 b 517 616 694 562 650 616 b 95 201 263 616 95 376 b 326 -13 95 80 164 -13 b 630 152 452 -13 551 43 l 569 193 b 376 62 485 104 426 62 b 269 231 327 62 269 111 b 270 258 269 237 269 247 b 694 512 645 311 694 461 m 539 513 b 278 305 539 379 381 322 b 485 562 327 500 431 562 b 539 513 517 562 539 548 "},"s":{"x_min":80.5625,"x_max":595.828125,"ha":579,"o":"m 294 -13 b 568 180 444 -13 568 52 b 355 376 568 258 469 318 b 297 469 319 394 297 427 b 402 558 297 519 336 558 b 523 404 461 558 523 497 l 588 398 l 595 550 b 411 616 534 600 481 616 b 150 433 270 616 150 552 b 277 281 150 373 186 334 b 405 137 334 247 405 202 b 300 40 405 63 352 40 b 141 211 208 40 141 105 l 80 205 l 86 0 b 294 -13 151 0 222 -13 "},"B":{"x_min":6.953125,"x_max":819.453125,"ha":824,"o":"m 373 895 b 165 898 291 895 234 897 b 165 850 155 890 158 858 b 265 787 238 845 265 844 b 258 726 265 770 262 751 l 161 169 b 13 45 140 54 112 50 b 12 -2 4 37 5 5 b 216 0 80 -1 216 0 l 406 0 b 816 300 713 0 816 152 b 656 498 816 394 769 465 l 656 501 b 819 723 697 518 819 590 b 536 897 819 808 766 897 b 373 895 479 897 437 895 m 376 463 l 470 463 b 650 304 590 463 650 400 b 391 55 650 220 597 55 b 311 93 327 55 311 68 b 315 116 311 100 312 108 l 376 463 m 431 780 b 534 838 438 820 448 838 b 661 722 588 838 661 819 b 461 522 661 643 620 522 l 386 522 l 431 780 "},"?":{"x_min":183.328125,"x_max":702.78125,"ha":597,"o":"m 312 140 b 208 48 277 140 220 112 b 263 -13 200 12 223 -13 b 366 68 316 -13 359 34 b 312 140 373 105 352 140 m 337 793 b 461 865 344 831 400 865 b 540 745 511 865 540 811 b 534 698 540 730 537 715 b 431 547 520 629 488 590 b 283 320 313 456 295 377 l 276 286 b 273 263 275 277 273 270 b 313 238 273 247 281 238 b 372 286 356 238 366 255 l 379 318 b 495 483 398 418 452 455 b 698 702 576 534 677 600 b 702 748 701 719 702 733 b 484 915 702 850 623 915 b 283 861 400 915 333 895 b 184 741 229 822 194 790 b 183 725 183 736 183 730 b 248 663 183 683 219 663 b 341 718 290 663 334 683 b 340 755 344 731 344 747 b 337 793 337 762 333 773 "},"H":{"x_min":68.0625,"x_max":1169.453125,"ha":1036,"o":"m 873 790 l 825 509 l 436 509 l 484 790 b 572 851 491 828 515 851 l 591 851 b 604 862 598 851 602 855 l 609 895 l 608 897 b 418 895 608 897 466 895 b 229 897 363 895 229 897 l 226 895 l 219 862 b 229 851 219 853 223 851 l 248 851 b 316 808 295 851 316 838 b 313 790 316 802 315 795 l 194 107 b 106 46 186 62 162 46 l 87 46 b 73 33 81 46 75 42 l 68 1 l 70 -1 b 259 1 70 -1 205 1 b 450 -1 309 1 450 -1 l 452 1 l 458 33 b 450 46 459 42 456 46 l 430 46 b 362 90 380 46 362 61 b 365 107 362 96 363 101 l 425 445 l 812 445 l 752 107 b 666 46 745 62 722 46 l 647 46 b 633 33 640 46 634 42 l 627 1 l 630 -1 b 819 1 630 -1 765 1 b 1009 -1 868 1 1009 -1 l 1012 1 l 1018 33 b 1009 46 1019 42 1015 46 l 988 46 b 922 90 940 46 922 61 b 925 107 922 96 923 101 l 1044 790 b 1130 851 1051 828 1073 851 l 1151 851 b 1163 862 1156 851 1162 855 l 1169 895 l 1166 897 b 977 895 1166 897 1026 895 b 787 897 923 895 787 897 l 784 895 l 779 862 b 788 851 777 855 781 851 l 808 851 b 875 808 855 851 875 838 b 873 790 875 802 875 795 "},"î":{"x_min":149,"x_max":537.96875,"ha":457,"o":"m 433 897 l 364 897 b 186 718 311 833 246 773 l 214 693 b 381 809 276 730 318 756 b 499 693 417 759 451 730 l 537 718 b 433 897 500 773 461 831 m 393 451 b 435 616 408 522 435 616 b 426 620 435 619 432 620 b 160 577 383 605 260 588 l 154 536 l 212 530 b 237 498 225 527 237 522 b 229 444 237 486 235 468 l 167 165 b 149 54 157 122 149 77 b 224 -13 149 29 153 -13 b 449 113 296 -13 362 26 l 406 151 b 335 93 376 113 350 93 b 322 115 328 93 322 98 b 332 173 322 127 325 145 l 393 451 "},"c":{"x_min":100.21875,"x_max":671.046875,"ha":617,"o":"m 330 -13 b 600 113 458 -13 533 45 l 544 161 b 373 56 489 97 405 56 b 272 240 337 56 272 81 b 472 562 272 441 380 562 b 515 513 483 562 515 554 b 509 448 515 472 509 475 b 584 398 509 425 523 398 b 671 468 605 398 671 416 b 468 616 671 537 621 616 b 100 211 294 616 100 441 b 330 -13 100 122 191 -13 "},"¶":{"x_min":169.4375,"x_max":994.453125,"ha":869,"o":"m 523 -287 b 494 -245 501 -287 494 -267 b 500 -198 494 -230 497 -213 l 697 768 b 761 855 705 811 716 855 b 790 820 776 854 790 852 b 784 772 790 809 788 793 l 586 -201 b 523 -287 575 -259 563 -287 m 668 -199 l 866 772 b 938 858 879 834 890 858 l 980 858 b 988 868 984 858 987 862 l 994 897 l 840 894 b 744 890 840 894 791 890 b 519 897 706 890 623 897 b 177 609 334 897 212 780 b 169 526 172 579 169 551 b 412 299 169 347 312 299 b 523 315 456 299 501 305 l 418 -198 b 347 -285 404 -270 393 -284 l 305 -285 b 295 -295 300 -285 297 -288 l 288 -324 l 745 -324 l 752 -295 b 747 -285 752 -289 751 -285 l 705 -285 b 661 -251 675 -284 661 -280 b 668 -199 661 -238 663 -223 "},"¥":{"x_min":122.21875,"x_max":872.21875,"ha":728,"o":"m 686 239 l 495 239 l 512 316 l 701 316 l 713 380 l 541 380 l 744 694 b 811 754 775 736 791 754 l 820 754 b 866 769 863 754 865 761 l 870 794 l 872 804 b 741 797 844 802 752 797 b 616 802 723 797 626 802 l 600 788 l 595 769 b 627 754 594 762 600 756 l 652 754 b 654 740 656 754 656 751 b 634 699 652 731 645 716 l 484 467 l 425 690 b 413 730 418 705 413 719 b 415 740 413 734 415 737 b 423 754 416 749 419 754 l 441 754 b 484 769 469 754 483 761 l 488 788 l 476 804 b 338 798 443 800 347 798 b 184 806 322 798 218 801 l 180 794 l 175 768 b 211 754 173 759 200 755 l 226 754 b 258 694 241 754 248 734 l 345 380 l 165 380 l 151 316 l 341 316 l 325 239 l 136 239 l 122 174 l 312 174 l 297 104 b 241 49 290 69 276 49 l 205 49 b 161 32 180 49 163 43 l 156 11 l 168 -1 b 365 1 168 -1 315 1 b 556 -1 418 1 556 -1 l 573 11 l 577 32 b 538 49 579 43 562 49 l 502 49 b 465 82 476 49 465 58 b 468 104 465 88 466 94 l 483 174 l 672 174 l 686 239 "},"(":{"x_min":106.9375,"x_max":615.28125,"ha":468,"o":"m 120 351 b 106 209 116 330 106 279 b 312 -295 106 79 141 -116 l 370 -251 b 263 129 343 -212 263 -91 b 287 351 263 194 270 268 b 615 952 362 718 562 904 l 577 1000 b 120 351 363 843 172 604 "},"U":{"x_min":184.71875,"x_max":1120.828125,"ha":949,"o":"m 886 790 l 815 383 b 526 49 788 233 730 49 b 361 237 477 49 361 87 b 376 372 361 281 369 327 l 450 790 b 537 851 456 828 480 851 l 556 851 b 569 862 563 851 568 855 l 576 895 l 573 897 b 383 895 573 897 433 895 b 194 897 329 895 194 897 l 191 895 l 184 862 b 194 851 184 853 188 851 l 213 851 b 281 808 261 851 281 838 b 279 790 281 802 280 795 l 198 326 b 190 242 193 295 190 267 b 486 -16 190 28 365 -16 b 927 406 793 -16 883 159 l 995 790 b 1081 851 1002 828 1025 851 l 1101 851 b 1115 862 1108 851 1113 855 l 1120 895 l 1118 897 b 959 895 1118 897 1009 895 b 801 897 905 895 801 897 l 798 895 l 791 862 b 801 851 791 855 795 851 l 820 851 b 888 808 868 851 888 838 b 886 790 888 802 887 795 "},"Ñ":{"x_min":73.609375,"x_max":1183.328125,"ha":1031,"o":"m 797 1036 b 730 1069 770 1036 750 1051 b 638 1112 706 1090 680 1112 b 501 971 579 1112 537 1061 l 534 960 b 613 1031 558 1011 577 1031 b 683 996 638 1031 661 1014 b 763 955 708 976 733 955 b 911 1100 827 955 877 1010 l 877 1114 b 797 1036 847 1049 826 1036 m 309 759 l 194 106 b 109 47 186 60 161 53 l 90 44 b 76 31 84 42 76 40 l 73 0 l 76 -3 b 215 0 76 -3 161 0 b 384 -3 265 0 384 -3 l 387 0 l 391 31 b 381 44 391 40 388 42 l 362 47 b 294 106 329 51 286 63 l 383 608 b 398 637 384 619 390 637 b 420 615 405 637 416 622 l 786 20 b 856 -16 795 5 813 -16 b 926 34 897 -16 920 3 l 1058 790 b 1147 848 1063 827 1091 840 l 1166 851 b 1180 862 1173 851 1179 855 l 1183 895 l 1180 897 b 1015 895 1180 897 1063 895 b 872 897 961 895 872 897 l 869 895 l 865 862 b 875 851 865 855 869 851 l 894 848 b 958 790 943 840 966 837 l 859 237 l 856 237 l 440 897 b 172 898 386 897 172 898 l 169 895 l 172 863 b 186 851 172 853 180 851 l 205 848 b 309 759 270 838 295 795 "},"F":{"x_min":32.609375,"x_max":814.5625,"ha":683,"o":"m 315 107 l 377 449 l 527 449 b 556 389 552 449 556 425 b 556 350 556 376 556 364 b 575 336 554 344 561 336 l 603 336 l 613 349 b 627 478 614 372 618 428 b 659 607 635 529 652 585 l 653 621 l 625 621 b 602 605 611 621 602 611 b 536 507 584 550 570 507 l 386 507 l 436 793 b 463 833 442 822 450 833 l 636 833 b 746 660 725 833 740 730 l 802 672 b 814 897 802 743 804 817 l 193 897 l 189 894 l 184 862 b 192 851 182 855 186 851 l 211 851 b 275 807 256 851 275 839 b 274 790 275 801 274 796 l 153 107 b 68 46 145 62 122 46 l 50 46 b 38 33 45 46 39 42 l 32 1 l 34 -1 b 215 1 34 -1 164 1 b 396 -1 264 1 396 -1 l 400 1 l 406 33 b 397 46 407 42 403 46 l 378 46 b 313 90 331 46 313 61 b 315 107 313 96 314 100 "},"­":{"x_min":106.9375,"x_max":540.28125,"ha":519,"o":"m 462 323 b 540 379 494 323 536 361 l 540 384 b 495 408 540 397 529 408 l 181 408 b 106 352 151 408 112 376 l 106 348 b 151 323 106 336 120 323 l 462 323 "},":":{"x_min":122.21875,"x_max":350,"ha":339,"o":"m 281 573 b 195 481 247 573 195 545 b 263 419 195 445 225 419 b 350 501 316 419 350 468 b 281 573 350 538 320 573 m 208 208 b 122 116 173 208 122 180 b 190 54 122 80 151 54 b 276 136 243 54 276 102 b 208 208 276 173 247 208 "},"Û":{"x_min":184.71875,"x_max":1120.828125,"ha":949,"o":"m 748 1117 l 688 1117 b 530 987 638 1070 588 1026 l 551 958 b 706 1040 606 981 651 1003 b 836 958 747 1006 786 983 l 868 987 b 748 1117 825 1024 781 1067 m 886 790 l 815 383 b 526 49 788 233 730 49 b 361 237 477 49 361 87 b 376 372 361 281 369 327 l 450 790 b 537 851 456 828 480 851 l 556 851 b 569 862 563 851 568 855 l 576 895 l 573 897 b 383 895 573 897 433 895 b 194 897 329 895 194 897 l 191 895 l 184 862 b 194 851 184 853 188 851 l 213 851 b 281 808 261 851 281 838 b 279 790 281 802 280 795 l 198 326 b 190 242 193 295 190 267 b 486 -16 190 28 365 -16 b 927 406 793 -16 883 159 l 995 790 b 1081 851 1002 828 1025 851 l 1101 851 b 1115 862 1108 851 1113 855 l 1120 895 l 1118 897 b 959 895 1118 897 1009 895 b 801 897 905 895 801 897 l 798 895 l 791 862 b 801 851 791 855 795 851 l 820 851 b 888 808 868 851 888 838 b 886 790 888 802 887 795 "},"*":{"x_min":286.15625,"x_max":684.75,"ha":635,"o":"m 379 744 b 298 663 341 719 305 695 b 297 657 298 662 297 659 b 352 619 297 635 319 619 b 456 702 405 619 431 659 b 526 619 463 659 470 619 b 600 664 558 619 593 637 l 600 673 b 550 744 600 699 577 720 b 518 781 541 752 533 759 b 561 784 531 782 548 784 b 684 839 616 784 675 794 l 684 846 b 626 885 684 863 673 885 b 543 853 588 885 566 870 l 530 845 b 543 871 536 864 533 849 b 570 942 555 898 566 927 b 572 955 570 946 572 950 b 513 996 572 982 545 996 b 436 937 476 996 443 968 b 434 921 434 932 434 927 b 438 880 434 909 436 895 b 441 846 438 870 441 862 b 434 853 438 849 437 852 b 363 887 418 871 400 887 b 286 839 315 887 290 862 l 286 830 b 401 782 286 792 331 782 b 429 781 409 782 419 782 b 379 744 405 759 391 752 "},"₫":{"x_min":58.328125,"x_max":880.5625,"ha":713,"o":"m 502 126 l 513 130 b 379 51 447 78 408 51 b 283 210 330 51 283 101 b 294 307 283 239 287 271 b 368 491 315 410 347 466 b 486 559 423 554 465 559 b 579 480 531 559 555 530 l 575 483 l 502 126 m 880 794 l 801 794 l 837 969 l 797 969 b 583 933 745 951 651 938 l 579 893 b 584 886 577 888 580 886 l 600 887 l 630 891 b 651 870 644 891 651 886 b 638 795 651 856 645 833 l 637 794 l 469 794 l 458 740 l 626 740 l 600 604 b 512 618 569 612 533 618 b 266 533 405 618 334 586 b 122 283 190 469 143 382 b 113 203 116 256 113 229 b 329 -17 113 72 188 -17 b 483 29 387 -17 437 0 l 470 -17 l 552 -17 b 756 40 590 10 669 27 l 759 89 b 662 82 704 82 676 82 b 663 97 663 82 663 87 l 663 101 b 673 168 663 111 666 132 l 790 740 l 869 740 l 880 794 m 72 -68 l 58 -132 l 691 -132 l 704 -68 l 72 -68 "},"°":{"x_min":186.109375,"x_max":455.5625,"ha":353,"o":"m 186 708 b 302 591 186 641 234 591 b 455 750 383 591 455 665 b 341 868 455 816 408 868 b 186 708 258 868 186 791 m 308 636 b 236 711 259 636 236 670 b 334 823 236 763 275 823 b 405 741 386 823 405 781 b 308 636 405 688 366 636 "},"V":{"x_min":151.390625,"x_max":1006.953125,"ha":847,"o":"m 719 851 b 798 824 775 851 798 845 b 781 780 798 813 791 799 l 522 295 l 500 256 l 493 299 l 413 794 b 412 805 412 798 412 801 b 518 851 412 838 441 851 b 530 862 525 851 529 855 l 536 895 l 534 897 b 341 895 534 897 390 895 b 161 897 290 895 161 897 l 158 895 l 151 862 b 161 851 151 855 155 851 b 252 769 229 851 241 833 l 373 15 b 411 -16 376 -5 397 -16 b 462 15 425 -16 451 -5 l 862 762 b 988 851 902 835 913 851 b 1001 862 995 851 1000 855 l 1006 895 l 1005 897 b 887 895 1005 897 934 895 b 719 897 834 895 719 897 l 716 895 l 711 862 b 719 851 709 855 713 851 "},"å":{"x_min":108.328125,"x_max":773.609375,"ha":750,"o":"m 393 787 b 391 765 391 780 391 773 b 488 672 391 712 431 672 b 630 787 555 672 619 725 b 633 809 631 795 633 802 b 534 902 633 863 591 902 b 393 787 470 902 406 851 m 527 859 b 581 802 559 859 581 836 b 580 787 581 798 581 793 b 498 716 573 751 537 716 b 443 773 462 716 443 743 b 444 787 443 777 443 783 b 527 859 451 826 487 859 m 472 54 b 558 -13 472 29 487 -13 b 773 113 630 -13 675 16 l 738 145 b 659 93 698 109 675 93 b 647 115 652 93 647 98 b 656 173 647 127 650 145 l 722 445 b 766 615 734 498 766 615 b 763 620 766 618 765 620 l 687 616 b 608 544 665 590 640 566 b 491 616 594 586 563 616 b 108 183 331 616 108 401 b 300 -13 108 105 154 -13 b 470 81 354 -13 384 0 l 473 80 b 472 54 472 72 472 59 m 518 270 b 347 55 472 155 386 55 b 277 209 286 55 277 134 b 495 562 277 352 384 562 b 561 459 536 562 561 513 b 518 270 561 437 545 344 "}," ":{"x_min":0,"x_max":0,"ha":381},"0":{"x_min":136.109375,"x_max":713.890625,"ha":678,"o":"m 336 -16 b 698 400 448 -16 634 90 b 713 534 706 447 713 491 b 673 711 713 602 700 662 b 509 805 641 761 579 805 b 148 387 365 805 201 647 b 136 263 140 345 136 302 b 336 -16 136 105 204 -16 m 497 745 b 531 726 508 745 520 740 b 563 594 550 708 563 665 b 544 425 563 550 556 493 b 462 156 519 304 491 220 b 348 38 412 54 365 38 b 284 179 298 38 284 102 b 305 373 284 245 295 320 b 497 745 370 690 451 745 "},"¾":{"x_min":97.140625,"x_max":990.171875,"ha":950,"o":"m 911 255 l 863 255 b 790 217 863 254 790 217 l 765 98 l 694 98 b 750 190 712 120 737 159 b 799 344 768 240 787 288 l 703 344 b 651 195 693 292 668 231 b 554 59 632 155 601 105 l 559 44 l 754 44 l 737 -34 b 725 -62 733 -58 732 -62 l 700 -62 b 668 -75 676 -62 668 -69 l 661 -107 l 778 -105 l 895 -107 l 902 -75 b 875 -62 902 -69 898 -62 l 852 -62 b 851 -34 847 -62 847 -55 l 868 44 l 938 44 l 949 98 l 879 98 l 911 255 m 431 791 b 301 690 420 735 363 698 l 297 654 b 355 663 337 660 352 663 b 424 573 380 663 438 647 b 315 462 405 483 333 462 b 261 485 290 462 267 472 b 206 515 255 498 245 515 b 159 470 183 515 165 492 b 291 422 154 438 227 422 b 555 583 416 422 536 485 b 469 706 569 654 519 692 b 562 799 516 731 555 765 b 433 884 573 852 523 884 b 236 783 290 884 241 809 b 277 747 234 777 233 747 b 343 798 324 747 338 780 b 408 841 351 829 391 841 b 431 791 422 841 440 830 m 919 834 l 97 -75 l 167 -75 l 990 834 l 919 834 "},"@":{"x_min":136.109375,"x_max":1443.0625,"ha":1447,"o":"m 458 155 b 641 -4 458 85 490 -4 b 827 70 681 -4 751 9 b 823 42 825 66 823 42 b 894 -7 823 17 837 -7 b 1443 492 1333 -7 1443 295 b 923 951 1443 752 1248 951 b 136 202 468 951 136 583 b 683 -311 136 -89 343 -311 b 1111 -173 880 -311 994 -250 l 1081 -119 b 725 -247 963 -201 850 -247 b 306 220 390 -247 306 17 b 912 891 306 604 601 891 b 1287 513 1080 891 1287 787 b 1008 56 1287 395 1193 56 b 1022 174 991 56 977 67 l 1190 592 l 1141 609 l 1050 584 b 930 617 1025 605 976 617 b 458 155 705 617 458 362 m 926 565 b 988 485 961 565 988 531 b 904 259 988 440 930 306 b 702 63 844 155 734 63 b 626 156 644 63 626 105 b 926 565 626 301 751 565 "},"ö":{"x_min":100,"x_max":731.953125,"ha":704,"o":"m 531 794 b 606 719 531 752 565 719 b 681 794 648 719 681 752 b 606 869 681 836 648 869 b 531 794 565 869 531 836 m 281 794 b 356 719 281 752 315 719 b 431 794 398 719 431 752 b 356 869 431 836 398 869 b 281 794 315 869 281 836 m 100 229 b 341 -13 100 154 143 -13 b 731 387 531 -13 731 168 b 488 616 731 487 680 616 b 100 229 238 616 100 395 m 275 240 b 462 559 275 361 327 559 b 559 377 544 559 559 462 b 376 45 559 288 520 45 b 275 240 344 45 275 69 "},"i":{"x_min":146,"x_max":454.015625,"ha":457,"o":"m 390 451 b 431 616 405 522 431 616 b 423 620 431 619 429 620 b 157 577 380 605 257 588 l 151 536 l 209 530 b 234 498 222 527 234 522 b 226 444 234 486 232 468 l 164 165 b 146 54 154 122 146 77 b 220 -13 146 29 150 -13 b 445 113 293 -13 359 26 l 402 151 b 331 93 373 113 347 93 b 319 115 324 93 319 98 b 329 173 319 127 322 145 l 390 451 m 288 793 b 370 709 288 747 324 709 b 454 793 416 709 454 747 b 370 876 454 838 416 876 b 288 793 324 876 288 838 "},"Õ":{"x_min":135.21875,"x_max":1074.109375,"ha":1019,"o":"m 776 1040 b 710 1073 750 1040 729 1055 b 618 1116 686 1094 660 1116 b 481 975 558 1116 517 1065 l 514 964 b 593 1035 538 1015 557 1035 b 663 1000 618 1035 640 1018 b 743 960 688 980 713 960 b 890 1104 807 960 857 1014 l 857 1118 b 776 1040 826 1053 806 1040 m 521 -16 b 1074 543 860 -16 1074 268 b 685 914 1074 771 903 914 b 135 343 361 914 135 614 b 521 -16 135 119 296 -16 m 657 857 b 888 558 788 857 888 755 b 558 40 888 315 756 40 b 322 340 421 40 322 148 b 657 857 322 575 456 857 "},"þ":{"x_min":-40.28125,"x_max":769.453125,"ha":746,"o":"m 229 477 b 91 345 175 436 125 391 l 141 302 b 205 376 158 326 184 355 l 72 -216 b 29 -279 63 -252 52 -279 l 2 -279 b -40 -296 -19 -279 -40 -283 l -40 -327 l -37 -330 b 134 -322 -37 -330 86 -322 b 312 -325 187 -322 312 -325 l 315 -322 l 315 -289 b 275 -272 315 -279 302 -272 l 250 -272 b 231 -239 236 -272 231 -259 b 233 -218 231 -232 231 -225 b 283 1 250 -148 268 -69 b 377 -14 309 -9 341 -14 b 769 402 588 -14 769 255 b 554 617 769 528 720 617 b 419 587 500 617 455 601 l 469 810 l 504 955 b 487 969 504 965 500 969 b 234 933 450 955 291 937 l 229 892 b 236 885 229 887 230 885 l 279 882 b 308 843 297 882 308 873 b 298 773 308 828 305 803 l 229 477 m 597 380 b 380 44 597 290 527 44 b 304 92 358 44 330 59 l 401 514 b 509 541 433 535 475 541 b 597 380 577 541 597 446 "},"]":{"x_min":-12.5,"x_max":593.0625,"ha":521,"o":"m -12 -277 l 343 -277 l 593 954 l 237 954 l 223 883 l 425 883 l 202 -206 l 1 -206 l -12 -277 "},"m":{"x_min":131.9375,"x_max":1159.71875,"ha":1136,"o":"m 412 522 l 437 616 b 429 620 437 619 434 620 b 165 577 386 605 265 588 l 159 535 l 218 530 b 243 498 230 527 243 522 b 234 444 243 485 240 467 l 131 0 l 145 -28 l 293 16 l 383 388 b 562 538 487 535 533 538 b 587 485 573 538 587 534 b 572 388 587 469 580 426 l 481 0 l 494 -28 l 641 16 l 727 377 b 911 538 840 534 881 538 b 937 485 922 538 937 531 b 922 383 937 469 929 419 l 879 165 b 859 53 869 122 859 77 b 936 -14 859 28 865 -14 b 1159 113 1008 -14 1073 26 l 1118 151 b 1045 92 1087 113 1062 92 b 1034 115 1040 92 1034 98 b 1043 173 1034 127 1037 147 l 1086 391 b 1098 485 1091 422 1098 462 b 972 616 1098 581 1029 616 b 748 499 884 616 812 569 b 625 616 741 598 673 616 b 413 520 541 616 476 580 l 412 522 "},"₥":{"x_min":0,"x_max":0,"ha":1389},"8":{"x_min":111.421875,"x_max":712.15625,"ha":678,"o":"m 520 463 b 712 665 644 512 712 586 b 514 806 712 762 644 806 b 223 587 337 806 223 694 b 329 418 223 509 290 450 b 111 150 143 323 111 220 b 346 -16 111 41 211 -16 b 660 240 551 -16 660 127 b 520 463 660 311 639 398 m 346 41 b 260 154 308 41 260 77 b 386 384 260 252 323 344 b 503 231 427 365 503 318 b 346 41 503 130 433 41 m 498 752 b 571 665 541 752 571 711 b 467 502 571 604 533 545 b 384 620 411 534 384 583 b 498 752 384 676 438 752 "},"R":{"x_min":29.171875,"x_max":830.265625,"ha":811,"o":"m 826 669 b 555 908 855 839 715 908 b 188 892 400 908 218 899 l 180 846 b 188 836 179 840 181 836 l 230 839 b 238 839 233 839 234 839 b 268 776 273 839 273 815 l 150 107 b 66 46 143 68 120 46 l 47 46 b 34 33 40 46 36 42 l 29 1 l 30 -1 b 243 1 30 -1 195 1 b 394 -1 295 1 394 -1 l 397 1 l 402 33 b 394 46 404 42 400 46 l 375 46 b 312 107 322 46 305 64 l 361 383 b 480 343 430 383 468 378 l 559 110 b 712 -7 583 44 633 -7 b 825 7 731 -7 783 -5 l 827 56 b 718 136 773 49 736 75 l 629 408 b 826 669 733 461 800 529 m 663 650 b 438 447 638 511 568 447 l 372 447 l 441 840 b 552 851 475 847 504 851 b 663 650 631 851 687 787 "},"á":{"x_min":108.328125,"x_max":773.609375,"ha":750,"o":"m 581 920 l 436 745 b 420 712 423 730 420 716 b 437 697 420 704 427 697 b 490 716 451 697 472 702 l 680 858 l 672 891 b 602 923 661 900 652 923 b 581 920 595 923 586 922 m 472 54 b 558 -13 472 29 487 -13 b 773 113 630 -13 675 16 l 738 145 b 659 93 698 109 675 93 b 647 115 652 93 647 98 b 656 173 647 127 650 145 l 722 445 b 766 615 734 498 766 615 b 763 620 766 618 765 620 l 687 616 b 608 544 665 590 640 566 b 491 616 594 586 563 616 b 108 183 331 616 108 401 b 300 -13 108 105 154 -13 b 470 81 354 -13 384 0 l 473 80 b 472 54 472 72 472 59 m 518 270 b 347 55 472 155 386 55 b 277 209 286 55 277 134 b 495 562 277 352 384 562 b 561 459 536 562 561 513 b 518 270 561 437 545 344 "},"×":{"x_min":183.328125,"x_max":722.21875,"ha":765,"o":"m 466 381 l 337 544 l 248 470 l 377 308 l 183 145 l 241 72 l 437 233 l 566 72 l 655 145 l 526 308 l 722 470 l 662 544 l 466 381 "},"o":{"x_min":100,"x_max":731.953125,"ha":704,"o":"m 100 229 b 341 -13 100 154 143 -13 b 731 387 531 -13 731 168 b 488 616 731 487 680 616 b 100 229 238 616 100 395 m 275 240 b 462 559 275 361 327 559 b 559 377 544 559 559 462 b 376 45 559 288 520 45 b 275 240 344 45 275 69 "},"5":{"x_min":109.71875,"x_max":736.109375,"ha":678,"o":"m 484 237 b 305 39 461 120 376 39 b 254 89 283 39 266 66 b 184 135 240 113 226 135 b 109 85 144 135 115 114 l 109 78 b 300 -17 109 24 213 -17 b 648 260 472 -17 616 103 b 654 314 652 278 654 296 b 443 518 654 424 584 518 b 313 509 408 518 341 514 l 376 698 b 530 693 411 696 481 693 b 695 700 570 693 625 694 l 736 790 l 711 805 b 484 790 626 795 551 790 b 316 800 436 790 379 793 l 186 394 b 395 444 276 428 337 444 b 491 312 450 444 491 400 b 484 237 491 288 490 264 "},"₩":{"x_min":0,"x_max":0,"ha":1389},"õ":{"x_min":100.109375,"x_max":732.046875,"ha":704,"o":"m 572 798 b 505 831 545 798 525 813 b 414 874 482 852 455 874 b 276 733 354 874 312 823 l 309 722 b 389 793 333 773 352 793 b 458 758 414 793 436 776 b 539 718 483 738 508 718 b 686 862 602 718 652 772 l 652 876 b 572 798 622 811 601 798 m 100 229 b 341 -13 100 154 143 -13 b 732 387 532 -13 732 168 b 489 616 732 487 680 616 b 100 229 239 616 100 395 m 275 240 b 462 559 275 361 327 559 b 559 377 544 559 559 462 b 376 45 559 288 520 45 b 275 240 344 45 275 69 "},"�":{"x_min":83.328125,"x_max":1388.890625,"ha":1471,"o":"m 679 2 b 727 25 693 18 709 25 b 776 2 747 25 762 16 b 795 -44 788 -11 795 -26 b 776 -91 795 -62 788 -77 b 727 -111 762 -105 747 -111 b 679 -91 708 -111 693 -104 b 659 -44 665 -77 659 -62 b 679 2 659 -25 666 -9 m 725 140 b 709 154 715 140 709 144 l 709 218 b 713 306 709 263 711 294 b 758 394 720 336 734 365 b 801 441 773 413 787 430 b 884 602 856 491 884 537 b 859 700 884 643 876 666 b 745 776 831 751 794 776 b 636 743 698 776 662 765 b 609 695 613 723 611 713 b 615 668 609 683 612 673 b 627 627 623 656 627 643 b 613 594 627 612 622 601 b 573 579 602 583 588 579 b 529 595 555 579 541 584 b 516 637 520 605 516 620 b 586 763 516 691 545 729 b 758 816 627 798 686 816 b 919 763 829 816 880 797 b 987 608 968 716 987 677 b 940 477 987 561 975 522 b 840 384 911 443 879 412 b 769 316 804 359 780 337 b 743 215 751 281 743 248 l 743 154 b 725 140 743 144 736 140 m 83 408 l 737 -245 l 1388 405 l 734 1061 l 83 408 "},"7":{"x_min":173.609375,"x_max":758.328125,"ha":678,"o":"m 347 689 l 604 689 l 173 -3 l 176 -18 l 304 -11 b 758 770 425 210 540 416 l 755 781 l 359 781 b 344 799 347 781 344 791 l 311 808 l 220 595 l 268 588 b 347 689 302 669 318 689 "},"K":{"x_min":73.609375,"x_max":1097.21875,"ha":963,"o":"m 802 797 l 483 534 b 436 511 459 515 447 511 l 486 791 b 575 850 493 829 519 842 l 594 853 b 608 864 601 854 606 857 l 611 897 l 608 899 b 418 897 608 899 466 897 b 229 899 363 897 229 899 l 226 897 l 222 864 b 231 853 222 857 226 854 l 251 850 b 315 791 301 842 323 839 l 194 106 b 109 47 186 62 161 53 l 90 44 b 76 31 84 42 77 40 l 73 0 l 76 -3 b 265 0 76 -3 211 0 b 455 -3 315 0 455 -3 l 458 0 l 462 31 b 452 44 462 40 459 42 l 433 47 b 365 106 400 51 358 63 l 418 408 b 459 383 437 408 448 398 l 625 134 b 683 28 650 97 683 55 l 683 0 l 686 -3 l 768 0 b 941 -3 822 0 941 -3 l 947 0 l 951 30 b 925 44 951 35 943 38 l 915 47 b 840 108 891 52 868 70 l 575 459 b 586 525 554 486 554 498 l 873 766 b 1061 850 933 817 995 842 l 1080 853 b 1094 867 1086 854 1094 857 l 1097 897 l 1094 900 b 975 897 1094 900 1029 897 b 765 900 925 897 765 900 l 762 897 l 758 867 b 768 853 758 858 761 854 l 797 850 b 802 797 831 847 820 811 "},",":{"x_min":39.9375,"x_max":266.671875,"ha":339,"o":"m 190 141 b 98 69 134 141 98 109 b 144 0 98 31 116 5 b 163 -23 152 -2 163 -5 b 44 -136 163 -59 123 -118 b 45 -182 38 -154 37 -169 b 266 44 136 -166 266 -104 b 190 141 266 95 244 141 "},"d":{"x_min":97.21875,"x_max":836.109375,"ha":772,"o":"m 801 810 l 836 955 b 819 969 836 965 831 969 b 566 933 781 955 623 937 l 561 892 b 568 885 561 887 562 885 l 611 882 b 640 843 629 882 640 874 b 630 774 640 828 636 803 l 590 590 b 486 617 561 607 522 617 b 97 200 337 617 97 439 b 298 -13 97 135 111 -13 b 468 85 336 -13 394 3 l 470 83 b 468 54 469 76 468 60 b 544 -13 468 29 473 -13 b 769 114 616 -13 683 26 l 726 151 b 655 93 695 114 670 93 b 643 115 648 93 643 99 b 652 174 643 128 645 146 l 801 810 m 558 461 b 509 250 558 440 537 324 b 347 54 466 149 379 54 b 268 214 273 54 268 140 b 490 562 268 376 363 562 b 558 461 530 562 558 517 "},"¨":{"x_min":230.5625,"x_max":630.5625,"ha":554,"o":"m 480 797 b 555 722 480 755 513 722 b 630 797 597 722 630 755 b 555 872 630 838 597 872 b 480 797 513 872 480 838 m 230 797 b 305 722 230 755 263 722 b 380 797 347 722 380 755 b 305 872 380 838 347 872 b 230 797 263 872 230 838 "},"Ô":{"x_min":134.71875,"x_max":1073.609375,"ha":1019,"o":"m 747 1118 l 687 1118 b 529 987 637 1070 587 1026 l 550 958 b 705 1040 605 981 650 1004 b 834 958 745 1006 784 983 l 866 987 b 747 1118 823 1025 780 1068 m 520 -16 b 1073 543 859 -16 1073 268 b 684 913 1073 770 902 913 b 134 343 361 913 134 613 b 520 -16 134 119 295 -16 m 656 856 b 887 558 787 856 887 755 b 558 40 887 315 755 40 b 322 340 420 40 322 148 b 656 856 322 575 455 856 "},"E":{"x_min":32.21875,"x_max":815.1875,"ha":747,"o":"m 35 0 l 686 0 b 763 234 708 75 737 161 l 708 248 b 532 63 668 145 605 63 l 328 63 b 314 80 318 63 314 68 b 316 104 314 87 314 94 l 378 448 l 528 448 b 557 388 553 448 557 425 b 557 350 557 376 557 363 b 576 336 555 344 562 336 l 604 336 l 614 348 b 628 477 615 372 619 427 b 660 606 636 529 653 584 l 654 620 l 626 620 b 603 605 612 620 603 611 b 537 506 585 550 571 506 l 387 506 l 437 793 b 464 833 443 822 451 833 l 637 833 b 747 659 726 833 741 730 l 802 672 b 815 897 802 743 805 816 l 193 897 l 189 894 l 183 862 b 191 851 182 855 186 851 l 211 851 b 275 806 255 851 275 838 b 273 790 275 801 273 795 l 153 106 b 68 45 144 62 122 45 l 50 45 b 37 33 44 45 39 41 l 32 2 l 35 0 "},"Y":{"x_min":151.21875,"x_max":980.5625,"ha":822,"o":"m 356 100 b 275 46 350 61 329 46 l 238 46 b 227 33 231 46 229 42 l 222 1 l 222 -1 b 422 1 222 -1 373 1 b 618 -1 473 1 618 -1 l 622 1 l 627 33 b 618 46 629 42 623 46 l 583 46 b 519 100 530 46 511 57 l 573 407 l 840 797 b 931 851 870 842 891 851 l 959 851 b 975 862 968 851 973 854 l 980 896 l 977 897 b 834 896 977 897 847 896 b 713 897 819 896 713 897 l 711 896 l 705 861 b 711 851 704 857 704 851 b 759 800 759 851 777 828 l 529 464 l 404 800 b 468 851 384 846 400 851 b 479 862 473 851 477 857 l 484 896 l 481 897 b 330 896 481 897 337 896 b 161 897 312 896 161 897 l 158 896 l 151 861 b 165 851 150 854 156 851 l 180 851 b 265 768 216 851 233 847 l 406 390 l 356 100 "},"\"":{"x_min":269.4375,"x_max":613.890625,"ha":501,"o":"m 465 585 l 513 593 b 611 844 513 593 606 823 b 613 862 612 850 613 857 b 559 896 613 880 602 896 b 452 821 500 896 459 853 b 444 590 452 812 444 590 l 465 585 m 290 585 l 338 593 b 436 844 338 593 431 823 b 438 862 437 850 438 857 b 384 896 438 880 427 896 b 277 821 325 896 284 853 b 269 590 277 812 269 590 l 290 585 "},"ê":{"x_min":95.46875,"x_max":694.03125,"ha":658,"o":"m 562 897 l 492 897 b 314 718 439 833 374 773 l 342 693 b 509 809 405 730 446 756 b 627 693 545 759 580 730 l 666 718 b 562 897 628 773 589 831 m 694 512 b 517 616 694 562 650 616 b 95 201 263 616 95 376 b 326 -13 95 80 164 -13 b 630 152 452 -13 551 43 l 569 193 b 376 62 485 104 426 62 b 269 231 327 62 269 111 b 270 258 269 237 269 247 b 694 512 645 311 694 461 m 539 513 b 278 305 539 379 381 322 b 485 562 327 500 431 562 b 539 513 517 562 539 548 "},"Ï":{"x_min":51.390625,"x_max":666.671875,"ha":476,"o":"m 516 1040 b 591 965 516 998 550 965 b 666 1040 633 965 666 998 b 591 1115 666 1081 633 1115 b 516 1040 550 1115 516 1081 m 208 1040 b 283 965 208 998 241 965 b 358 1040 325 965 358 998 b 283 1115 358 1081 325 1115 b 208 1040 241 1115 208 1081 m 376 170 l 473 727 b 619 851 494 843 520 847 b 622 900 629 859 629 891 b 418 897 554 898 497 897 b 209 900 336 897 279 898 b 209 851 200 891 202 859 b 309 788 283 847 309 845 b 302 727 309 772 306 752 l 205 170 b 58 47 184 55 156 51 b 56 -1 48 38 50 6 b 261 1 125 0 181 1 b 469 -1 343 1 400 0 b 470 47 479 6 477 38 b 368 108 395 50 368 52 b 376 170 368 123 370 144 "},"Â":{"x_min":18.0625,"x_max":994.453125,"ha":999,"o":"m 719 1117 l 659 1117 b 501 987 609 1070 559 1026 l 522 958 b 677 1040 577 981 622 1003 b 806 958 718 1006 756 983 l 838 987 b 719 1117 795 1024 752 1067 m 879 126 l 729 870 b 681 913 722 899 712 913 b 616 870 666 913 636 902 l 170 130 b 54 47 150 95 119 55 l 34 44 b 20 31 29 42 20 40 l 18 0 l 20 -3 b 140 0 20 -3 86 0 b 312 -3 190 0 312 -3 l 315 0 l 319 31 b 309 44 319 40 316 42 l 294 47 b 247 101 259 52 229 70 l 376 315 b 402 334 384 328 391 334 l 665 334 l 709 101 b 651 47 715 65 684 52 l 636 44 b 626 31 629 42 626 40 l 622 0 l 625 -3 b 880 0 625 -3 830 0 b 986 -3 934 0 986 -3 l 988 0 l 994 31 b 980 44 994 40 986 42 l 961 47 b 879 126 894 55 886 85 m 438 399 b 436 416 429 399 429 405 l 595 685 l 652 399 l 438 399 "},"Í":{"x_min":51.390625,"x_max":627.125,"ha":476,"o":"m 501 1143 l 311 1023 b 290 988 298 1015 291 998 l 290 984 b 306 968 290 973 295 968 b 369 984 319 968 337 972 l 581 1065 l 501 1143 m 376 169 l 473 726 b 619 850 494 841 520 845 b 622 898 629 858 629 890 b 418 895 554 897 497 895 b 209 898 336 895 279 897 b 209 850 200 890 202 858 b 309 787 283 845 309 844 b 302 726 309 770 306 751 l 205 169 b 58 45 184 54 156 50 b 56 -2 48 37 50 5 b 261 0 125 -1 181 0 b 469 -2 343 0 400 -1 b 470 45 479 5 477 37 b 368 106 395 48 368 51 b 376 169 368 122 370 143 "},"´":{"x_min":266.890625,"x_max":579.40625,"ha":508,"o":"m 432 973 l 287 801 b 266 765 273 784 266 772 b 314 745 266 754 289 745 b 379 773 339 745 353 752 l 579 931 l 578 936 b 559 952 575 937 562 950 l 561 952 b 479 979 551 963 536 979 b 446 975 466 979 451 977 l 432 973 "},"ì":{"x_min":149,"x_max":449.234375,"ha":457,"o":"m 385 930 b 358 933 381 931 365 933 b 258 901 311 933 270 909 l 252 886 l 379 734 b 414 706 397 713 406 706 b 445 730 428 706 442 718 b 446 744 445 734 446 738 b 442 765 446 751 445 759 l 385 930 m 393 451 b 435 616 408 522 435 616 b 427 620 435 619 432 620 b 160 577 383 605 260 588 l 154 536 l 213 530 b 238 498 225 527 238 522 b 229 444 238 486 235 468 l 167 165 b 149 54 157 122 149 77 b 224 -13 149 29 153 -13 b 449 113 296 -13 363 26 l 406 151 b 335 93 377 113 350 93 b 322 115 328 93 322 98 b 332 173 322 127 325 145 l 393 451 "},"±":{"x_min":90.28125,"x_max":772.21875,"ha":765,"o":"m 534 480 l 583 719 l 463 719 l 416 480 l 177 480 l 161 400 l 398 400 l 351 162 l 469 162 l 518 400 l 755 400 l 772 480 l 534 480 m 695 101 l 106 101 l 90 20 l 679 20 l 695 101 "},"Ú":{"x_min":184.71875,"x_max":1120.828125,"ha":949,"o":"m 783 1142 l 593 1023 b 572 988 580 1015 573 998 l 572 984 b 588 967 572 973 577 967 b 651 984 601 967 619 972 l 863 1065 l 783 1142 m 886 790 l 815 383 b 526 49 788 233 730 49 b 361 237 477 49 361 87 b 376 372 361 281 369 327 l 450 790 b 537 851 456 828 480 851 l 556 851 b 569 862 563 851 568 855 l 576 895 l 573 897 b 383 895 573 897 433 895 b 194 897 329 895 194 897 l 191 895 l 184 862 b 194 851 184 853 188 851 l 213 851 b 281 808 261 851 281 838 b 279 790 281 802 280 795 l 198 326 b 190 242 193 295 190 267 b 486 -16 190 28 365 -16 b 927 406 793 -16 883 159 l 995 790 b 1081 851 1002 828 1025 851 l 1101 851 b 1115 862 1108 851 1113 855 l 1120 895 l 1118 897 b 959 895 1118 897 1009 895 b 801 897 905 895 801 897 l 798 895 l 791 862 b 801 851 791 855 795 851 l 820 851 b 888 808 868 851 888 838 b 886 790 888 802 887 795 "},"|":{"x_min":47.0625,"x_max":404,"ha":332,"o":"m 155 -319 l 404 905 l 297 905 l 47 -319 l 155 -319 "},"§":{"x_min":80.21875,"x_max":726.4375,"ha":658,"o":"m 534 912 b 239 697 385 912 259 788 b 233 640 235 679 233 661 b 252 565 233 615 238 590 b 128 383 184 516 144 455 b 124 334 126 366 124 350 b 376 68 124 237 196 166 b 414 -11 400 55 414 26 b 410 -43 414 -20 413 -31 b 281 -180 393 -133 328 -180 b 221 -116 230 -180 221 -131 b 223 -112 221 -115 221 -113 b 230 -95 224 -100 226 -100 b 251 -58 235 -87 248 -68 l 251 -51 b 176 1 251 -31 239 1 b 84 -55 137 1 89 -20 b 80 -83 81 -65 80 -75 b 271 -233 80 -172 169 -233 b 577 -13 415 -233 558 -105 b 582 33 580 2 582 18 b 551 118 582 63 575 91 b 679 305 620 168 665 230 b 684 351 683 320 684 336 b 460 608 684 486 551 559 b 393 693 419 629 393 647 b 396 723 393 701 395 712 b 529 861 410 793 468 861 b 584 795 579 861 584 809 b 579 777 584 790 582 779 l 582 777 b 557 737 570 766 559 752 l 557 729 b 632 677 557 711 566 677 b 723 736 673 677 718 704 b 726 763 726 745 726 754 b 534 912 726 851 638 912 m 381 222 b 260 415 318 256 260 333 b 263 450 260 427 262 437 b 306 534 271 486 287 515 b 548 275 395 491 548 408 b 544 238 548 263 547 251 b 504 154 537 202 523 173 b 381 222 457 181 414 204 "},"Ý":{"x_min":151.21875,"x_max":980.5625,"ha":822,"o":"m 729 1144 l 538 1025 b 518 990 526 1017 519 1000 l 518 986 b 534 969 518 975 523 969 b 597 986 547 969 565 974 l 809 1067 l 729 1144 m 356 100 b 275 46 350 61 329 46 l 238 46 b 227 33 231 46 229 42 l 222 1 l 222 -1 b 422 1 222 -1 373 1 b 618 -1 473 1 618 -1 l 622 1 l 627 33 b 618 46 629 42 623 46 l 583 46 b 519 100 530 46 511 57 l 573 407 l 840 797 b 931 851 870 842 891 851 l 959 851 b 975 862 968 851 973 854 l 980 896 l 977 897 b 834 896 977 897 847 896 b 713 897 819 896 713 897 l 711 896 l 705 861 b 711 851 704 857 704 851 b 759 800 759 851 777 828 l 529 464 l 404 800 b 468 851 384 846 400 851 b 479 862 473 851 477 857 l 484 896 l 481 897 b 330 896 481 897 337 896 b 161 897 312 896 161 897 l 158 896 l 151 861 b 165 851 150 854 156 851 l 180 851 b 265 768 216 851 233 847 l 406 390 l 356 100 "},"b":{"x_min":88.890625,"x_max":752.78125,"ha":718,"o":"m 444 809 l 479 955 b 462 969 479 964 475 969 b 209 932 425 955 266 937 l 204 891 b 211 884 204 887 205 884 l 254 881 b 283 842 272 881 283 873 b 273 773 283 827 280 802 l 118 102 b 88 -4 104 46 98 23 l 133 -24 b 194 48 147 -12 176 21 b 336 -14 238 2 279 -14 b 491 20 397 -14 451 -1 b 752 410 680 124 752 309 b 543 616 752 514 680 616 b 390 578 490 616 433 601 l 444 809 m 583 396 b 337 34 583 273 498 34 b 272 69 313 34 290 41 l 370 496 b 500 545 436 542 476 545 b 583 396 554 545 583 476 "},"q":{"x_min":105.5625,"x_max":765.28125,"ha":794,"o":"m 415 -211 b 372 -273 406 -245 395 -273 l 345 -273 b 302 -290 323 -273 302 -277 l 302 -311 l 316 -325 b 477 -316 316 -325 429 -316 b 644 -318 530 -316 644 -318 l 658 -304 l 658 -283 b 619 -266 658 -273 645 -266 l 593 -266 b 576 -233 580 -266 576 -254 b 577 -212 576 -226 576 -219 l 761 581 b 765 604 762 590 765 598 b 722 626 765 623 738 626 b 663 595 691 626 676 609 b 637 566 655 584 647 576 b 501 615 605 599 559 615 b 105 206 344 615 105 447 b 301 -8 105 110 162 -8 b 479 56 375 -8 422 5 l 415 -211 m 569 460 b 522 254 569 438 548 330 b 344 59 491 166 384 59 b 277 222 288 59 277 148 b 505 560 277 384 381 560 b 569 460 545 560 569 515 "},"Ö":{"x_min":134.71875,"x_max":1073.609375,"ha":1019,"o":"m 520 -16 b 1073 543 859 -16 1073 268 b 684 913 1073 770 902 913 b 134 343 361 913 134 613 b 520 -16 134 119 295 -16 m 656 856 b 887 558 787 856 887 755 b 558 40 887 315 755 40 b 322 340 420 40 322 148 b 656 856 322 575 455 856 m 920 972 b 995 897 920 930 954 897 b 1070 972 1037 897 1070 930 b 995 1047 1070 1013 1037 1047 b 920 972 954 1047 920 1013 m 294 972 b 369 897 294 930 327 897 b 444 972 411 897 444 930 b 369 1047 444 1013 411 1047 b 294 972 327 1047 294 1013 "},"z":{"x_min":64.328125,"x_max":679.609375,"ha":635,"o":"m 612 634 b 549 576 571 587 557 576 b 510 584 542 576 529 579 b 292 616 442 602 342 616 b 131 443 228 616 154 525 l 175 427 b 297 500 190 466 257 500 b 426 489 365 500 385 489 b 497 497 439 489 487 498 b 156 133 390 375 239 230 b 64 16 124 97 68 29 b 139 -20 71 1 111 -16 b 194 55 171 33 190 55 b 283 18 208 55 239 43 b 417 -13 318 -2 369 -13 b 640 172 493 -13 576 21 l 592 193 b 453 104 539 104 476 104 b 360 136 435 104 393 116 b 268 154 342 144 308 152 b 679 605 350 247 615 509 l 612 634 "},"ã":{"x_min":108.328125,"x_max":773.609375,"ha":750,"o":"m 597 798 b 530 831 570 798 550 813 b 438 874 506 852 480 874 b 301 733 379 874 337 823 l 334 722 b 413 793 358 773 377 793 b 483 758 438 793 461 776 b 563 718 508 738 533 718 b 711 862 627 718 677 772 l 677 876 b 597 798 647 811 626 798 m 472 54 b 558 -13 472 29 487 -13 b 773 113 630 -13 675 16 l 738 145 b 659 93 698 109 675 93 b 647 115 652 93 647 98 b 656 173 647 127 650 145 l 722 445 b 766 615 734 498 766 615 b 763 620 766 618 765 620 l 687 616 b 608 544 665 590 640 566 b 491 616 594 586 563 616 b 108 183 331 616 108 401 b 300 -13 108 105 154 -13 b 470 81 354 -13 384 0 l 473 80 b 472 54 472 72 472 59 m 518 270 b 347 55 472 155 386 55 b 277 209 286 55 277 134 b 495 562 277 352 384 562 b 561 459 536 562 561 513 b 518 270 561 437 545 344 "},"æ":{"x_min":84.625,"x_max":1063.796875,"ha":993,"o":"m 495 531 b 509 479 505 520 509 504 b 491 351 509 450 504 409 b 88 148 255 331 116 273 b 84 115 86 137 84 126 b 301 -16 84 36 156 -16 b 511 54 376 -16 455 11 b 705 -16 538 20 591 -16 b 963 115 813 -16 906 40 l 915 151 b 742 61 851 93 801 61 b 630 220 674 61 630 123 b 640 301 630 245 633 272 b 1062 475 947 319 1036 365 b 1063 488 1062 479 1063 484 b 847 618 1063 540 1009 618 b 638 550 772 618 695 593 b 462 618 592 609 494 618 b 177 472 333 618 197 555 b 176 456 176 466 176 462 b 248 405 176 431 192 405 b 344 455 302 405 338 431 b 341 483 345 462 344 472 l 347 508 b 445 565 355 547 406 565 b 495 531 462 565 480 552 m 433 143 b 319 52 395 77 354 52 b 245 120 266 52 245 80 b 249 154 245 131 247 143 b 477 290 263 216 341 273 b 433 143 461 225 444 163 m 833 559 b 897 490 873 559 897 525 b 895 470 897 483 897 477 b 656 361 877 395 806 370 b 833 559 694 470 759 559 "},"®":{"x_min":117.765625,"x_max":887.203125,"ha":856,"o":"m 570 763 b 831 493 723 763 831 647 b 824 425 831 470 828 448 b 438 86 787 238 614 86 b 174 357 280 86 174 202 b 181 425 174 377 176 401 b 570 763 217 609 391 763 m 427 32 b 880 425 635 32 838 208 b 887 502 884 451 887 477 b 580 816 887 682 762 816 b 126 425 371 816 169 641 b 117 347 120 397 117 372 b 427 32 117 168 242 32 m 580 516 b 466 429 563 430 508 429 l 496 588 b 535 593 503 591 520 593 b 583 545 569 593 583 575 b 580 516 583 536 581 526 m 663 516 b 664 536 663 522 664 529 b 556 620 664 575 641 620 b 377 613 458 620 406 618 l 374 595 b 385 587 373 590 377 587 l 408 588 b 410 573 412 588 412 580 l 351 270 b 338 259 349 261 346 259 l 321 259 b 306 251 313 259 308 257 l 302 232 l 377 234 b 467 232 396 234 467 232 l 471 251 b 458 259 473 257 469 259 l 442 259 b 435 269 433 259 434 262 l 459 395 b 495 391 466 395 489 394 l 537 283 b 617 230 546 247 580 230 b 649 236 624 230 635 232 l 653 254 b 608 297 631 254 620 266 l 566 411 b 663 516 566 411 648 444 "},"É":{"x_min":32.21875,"x_max":815.1875,"ha":781,"o":"m 716 1144 l 526 1025 b 505 990 514 1016 507 1000 l 505 986 b 522 969 505 975 511 969 b 584 986 534 969 553 973 l 797 1066 l 716 1144 m 35 0 l 686 0 b 763 234 708 75 737 161 l 708 248 b 532 63 668 145 605 63 l 328 63 b 314 80 318 63 314 68 b 316 104 314 87 314 94 l 378 448 l 528 448 b 557 388 553 448 557 425 b 557 350 557 376 557 363 b 576 336 555 344 562 336 l 604 336 l 614 348 b 628 477 615 372 619 427 b 660 606 636 529 653 584 l 654 620 l 626 620 b 603 605 612 620 603 611 b 537 506 585 550 571 506 l 387 506 l 437 793 b 464 833 443 822 451 833 l 637 833 b 747 659 726 833 741 730 l 802 672 b 815 897 802 743 805 816 l 193 897 l 189 894 l 183 862 b 191 851 182 855 186 851 l 211 851 b 275 806 255 851 275 838 b 273 790 275 801 273 795 l 153 106 b 68 45 144 62 122 45 l 50 45 b 37 33 44 45 39 41 l 32 2 l 35 0 "},"~":{"x_min":86.109375,"x_max":715.28125,"ha":657,"o":"m 108 287 l 151 275 b 301 381 198 341 265 381 b 376 338 320 381 348 361 b 488 293 406 316 436 293 b 715 461 529 293 641 311 l 648 488 b 512 384 600 409 541 384 b 437 429 497 384 465 406 b 327 473 405 452 373 473 b 86 293 227 473 122 384 l 108 287 "},"³":{"x_min":159.421875,"x_max":564.25,"ha":461,"o":"m 433 862 b 301 761 421 807 363 769 l 296 724 b 355 733 338 732 352 733 b 427 667 377 733 427 721 b 425 644 427 660 427 653 b 315 533 407 554 333 533 b 260 557 290 533 267 543 b 206 586 255 569 245 586 b 160 542 183 586 164 564 b 159 537 159 540 159 539 b 291 492 159 508 230 492 b 555 654 416 492 536 557 b 558 678 557 662 558 671 b 469 778 558 733 514 765 b 562 869 517 803 555 836 b 564 883 564 875 564 879 b 433 955 564 928 515 955 b 235 854 290 955 241 879 l 235 850 b 277 818 235 839 239 818 b 344 869 324 818 338 851 b 408 912 351 899 391 912 b 433 879 419 912 433 904 l 433 862 "},"₧":{"x_min":0.078125,"x_max":1284.765625,"ha":1236,"o":"m 126 92 b 79 44 119 62 107 44 l 45 44 b 4 28 20 44 5 38 l 0 10 l 9 -2 b 190 0 9 -2 145 0 b 363 -2 237 0 363 -2 l 379 10 l 383 27 b 345 42 386 37 368 42 l 313 42 b 284 69 293 42 284 52 b 287 90 284 76 286 83 l 338 348 b 370 347 351 341 337 347 b 659 483 519 347 609 409 l 675 483 l 601 113 b 595 69 597 96 595 82 b 694 -13 595 10 632 -13 b 788 5 727 -13 759 -7 l 787 -8 b 848 1 829 -1 844 1 b 866 -1 852 1 858 1 b 983 -12 894 -8 934 -12 b 1237 145 1063 -12 1212 19 b 1240 171 1240 155 1240 164 b 1072 334 1240 251 1163 289 b 1009 401 1031 353 1009 364 b 1012 425 1009 406 1011 415 b 1101 512 1026 491 1068 512 b 1183 365 1120 512 1172 497 l 1270 366 l 1284 517 b 1111 560 1258 533 1183 560 b 983 530 1065 560 1020 550 b 945 542 981 537 969 542 l 838 542 l 880 747 l 740 701 l 736 679 b 708 586 727 642 719 608 b 713 607 711 593 712 600 b 718 647 716 618 718 632 b 480 819 718 722 673 819 b 343 814 452 819 407 817 b 162 807 282 810 179 807 l 155 776 b 193 762 154 771 155 762 b 211 764 195 762 202 762 b 237 765 220 764 232 765 b 255 740 245 765 255 761 b 252 715 255 733 255 725 l 126 92 m 870 405 b 868 374 868 394 868 384 b 1000 245 868 310 918 283 b 1090 143 1066 215 1090 185 b 1087 116 1090 135 1088 125 b 988 31 1075 58 1023 31 b 920 65 958 31 929 54 b 904 138 908 80 904 109 b 907 185 904 154 905 173 l 818 184 b 802 81 812 152 808 114 l 818 86 b 754 64 788 71 770 64 b 749 77 751 64 749 68 b 763 171 749 93 754 124 l 827 483 l 913 483 b 870 405 891 459 876 433 m 422 755 l 401 751 b 462 765 423 758 447 765 b 561 657 512 765 561 746 b 552 583 561 636 559 612 b 375 399 527 455 463 399 b 348 401 365 399 357 399 l 422 755 "},"¡":{"x_min":20.828125,"x_max":358.328125,"ha":349,"o":"m 270 456 b 358 547 306 456 358 483 b 288 611 358 583 327 611 b 202 527 236 611 202 561 b 270 456 202 490 231 456 m 109 -316 b 236 -212 151 -316 219 -290 b 248 -68 245 -158 248 -102 b 255 54 248 -38 250 1 b 280 261 262 127 270 208 b 286 305 283 279 286 293 b 241 336 286 325 277 336 b 179 277 190 336 184 304 b 113 54 170 240 150 165 b 70 -65 98 8 83 -31 b 23 -212 52 -111 34 -163 b 20 -237 22 -220 20 -229 b 109 -316 20 -291 63 -316 "},"[":{"x_min":66.671875,"x_max":672.21875,"ha":521,"o":"m 672 956 l 316 956 l 66 -275 l 422 -275 l 436 -204 l 234 -204 l 456 886 l 658 886 l 672 956 "},"L":{"x_min":68.0625,"x_max":798.609375,"ha":799,"o":"m 327 790 l 206 104 b 156 48 200 59 190 48 l 115 48 b 70 31 93 48 73 43 l 68 11 l 79 -1 b 273 1 79 -1 256 1 l 380 0 l 729 0 l 798 231 l 734 243 b 558 63 694 141 629 63 l 405 63 b 379 104 388 63 379 79 b 381 127 379 112 380 119 l 498 790 b 584 851 505 829 527 851 l 605 851 b 618 862 611 851 616 855 l 623 895 l 620 897 b 431 895 620 897 480 895 b 241 897 376 895 241 897 l 238 895 l 233 862 b 243 851 233 855 236 851 l 262 851 b 329 808 309 851 329 838 b 327 790 329 802 329 795 "}," ":{"x_min":0,"x_max":0,"ha":347},"%":{"x_min":134.125,"x_max":967.515625,"ha":922,"o":"m 667 718 b 541 752 648 718 606 718 l 550 751 b 443 786 539 766 495 786 b 188 562 327 786 209 671 b 184 529 185 551 184 540 b 310 407 184 467 220 407 b 567 656 446 407 549 565 l 568 667 b 642 656 592 661 620 656 b 750 667 674 656 710 658 l 134 -1 l 227 -26 l 967 779 l 873 795 b 667 718 802 733 717 718 m 541 130 b 538 96 539 119 538 108 b 664 -26 538 32 575 -26 b 920 224 798 -26 900 129 b 923 257 923 235 923 247 b 798 353 923 333 859 353 b 541 130 679 353 563 236 m 667 111 b 802 300 684 187 750 300 b 835 257 817 300 835 293 b 831 221 835 247 834 235 b 682 25 816 147 750 25 b 663 65 673 25 663 35 b 667 111 663 78 664 92 m 314 543 b 448 732 329 621 398 732 b 481 690 464 732 481 723 b 477 654 481 679 479 668 b 328 458 461 578 391 458 b 309 499 318 458 309 467 b 314 543 309 511 310 525 "},"P":{"x_min":29.171875,"x_max":825.28125,"ha":725,"o":"m 150 107 b 66 46 143 62 119 46 l 47 46 b 34 33 41 46 36 42 l 29 1 l 30 -1 b 211 1 30 -1 159 1 b 394 -1 259 1 394 -1 l 397 1 l 402 33 b 394 46 404 42 401 46 l 375 46 b 312 107 320 46 306 69 l 363 392 b 436 388 381 389 404 388 b 822 672 698 388 801 554 b 544 908 836 756 812 908 b 193 897 437 908 272 897 l 186 896 l 181 869 b 194 858 180 864 184 858 l 237 858 b 270 794 265 858 280 843 l 150 107 m 443 839 b 523 851 470 846 508 851 b 648 649 601 851 677 818 b 438 443 623 504 548 443 b 373 447 419 443 393 444 l 443 839 "},"À":{"x_min":18.0625,"x_max":994.453125,"ha":999,"o":"m 605 1135 l 490 1073 l 691 985 b 748 969 719 973 736 969 b 772 992 768 969 772 985 b 755 1019 772 1001 768 1009 l 605 1135 m 879 126 l 729 870 b 681 913 722 899 712 913 b 616 870 666 913 636 902 l 170 130 b 54 47 150 95 119 55 l 34 44 b 20 31 29 42 20 40 l 18 0 l 20 -3 b 140 0 20 -3 86 0 b 312 -3 190 0 312 -3 l 315 0 l 319 31 b 309 44 319 40 316 42 l 294 47 b 247 101 259 52 229 70 l 376 315 b 402 334 384 328 391 334 l 665 334 l 709 101 b 651 47 715 65 684 52 l 636 44 b 626 31 629 42 626 40 l 622 0 l 625 -3 b 880 0 625 -3 830 0 b 986 -3 934 0 986 -3 l 988 0 l 994 31 b 980 44 994 40 986 42 l 961 47 b 879 126 894 55 886 85 m 438 399 b 436 416 429 399 429 405 l 595 685 l 652 399 l 438 399 "},"_":{"x_min":-45.828125,"x_max":684.71875,"ha":710,"o":"m 684 -141 l -30 -141 l -45 -212 l 669 -212 l 684 -141 "},"ñ":{"x_min":108.328125,"x_max":795.828125,"ha":804,"o":"m 681 798 b 615 831 655 798 634 813 b 523 874 591 852 565 874 b 386 733 463 874 422 823 l 419 722 b 498 793 443 773 462 793 b 568 758 523 793 545 776 b 648 718 593 738 618 718 b 795 862 712 718 762 772 l 762 876 b 681 798 731 811 711 798 m 388 520 l 387 522 l 412 616 b 404 620 412 619 409 620 b 140 577 361 605 240 588 l 134 536 l 193 530 b 218 498 205 527 218 522 b 209 444 218 486 215 467 l 108 0 l 119 -28 l 269 16 l 362 413 b 552 538 436 505 508 538 b 581 494 575 538 581 524 b 565 388 581 473 575 433 l 515 162 b 495 51 505 119 495 74 b 572 -16 495 26 500 -16 b 795 110 644 -16 709 23 l 752 148 b 681 90 723 110 697 90 b 670 112 676 90 670 95 b 679 170 670 124 673 144 l 729 395 b 744 502 740 445 744 479 b 640 616 744 588 698 616 b 388 520 579 616 495 602 "},"+":{"x_min":144.4375,"x_max":755.5625,"ha":765,"o":"m 518 362 l 566 601 l 447 601 l 400 362 l 161 362 l 144 281 l 381 281 l 334 44 l 452 44 l 501 281 l 738 281 l 755 362 l 518 362 "},"½":{"x_min":97.390625,"x_max":990.4375,"ha":950,"o":"m 315 532 b 243 471 307 491 290 471 l 232 471 b 218 460 225 471 219 466 l 214 437 l 215 435 b 344 437 215 435 296 437 b 496 435 398 437 496 435 l 498 437 l 504 460 b 494 471 505 466 500 471 l 482 471 b 434 532 437 471 426 491 l 507 887 l 443 887 b 255 803 368 846 329 829 l 261 755 b 369 790 293 766 355 787 b 357 737 359 783 365 776 l 315 532 m 671 180 b 739 223 694 180 734 198 b 739 247 740 226 739 240 b 740 262 739 251 739 255 b 800 297 743 278 765 297 b 837 219 815 297 848 280 b 751 96 826 169 801 133 b 541 -115 601 -13 555 -46 l 884 -115 l 927 -3 l 868 8 b 832 -59 852 -26 844 -40 l 683 -59 b 852 89 694 -24 723 3 b 964 222 909 130 954 173 b 815 339 982 314 897 339 b 627 229 684 339 634 266 b 671 180 622 207 639 180 m 919 835 l 97 -74 l 168 -74 l 990 835 l 919 835 "},"Æ":{"x_min":3.171875,"x_max":1277.796875,"ha":1213,"o":"m 687 1 l 1150 1 b 1227 236 1173 76 1200 162 l 1172 250 b 996 65 1132 147 1069 65 l 792 65 b 776 82 782 65 776 69 b 780 105 776 87 778 96 l 840 450 l 993 450 b 1021 389 1017 450 1021 425 b 1021 351 1021 376 1021 364 b 1039 337 1019 346 1026 337 l 1068 337 l 1078 350 b 1092 479 1079 374 1082 429 b 1124 608 1100 529 1117 586 l 1118 622 l 1090 622 b 1065 607 1076 622 1067 612 b 1003 508 1047 550 1035 508 l 851 508 l 901 794 b 928 835 907 824 915 835 l 1100 835 b 1211 661 1190 835 1205 732 l 1266 674 b 1277 897 1266 744 1269 818 l 847 897 l 553 897 l 550 896 l 544 861 b 553 851 543 855 544 851 b 624 817 596 851 624 840 b 610 780 624 807 619 794 l 144 97 b 54 46 110 49 92 46 l 24 46 b 8 35 17 46 10 42 l 3 1 l 5 -1 b 139 1 5 -1 92 1 b 290 -1 190 1 290 -1 l 293 1 l 300 37 b 293 46 300 40 299 46 b 226 71 258 46 226 50 b 236 94 226 76 229 85 l 426 369 l 664 369 l 618 107 b 535 46 611 68 589 46 l 499 46 b 486 32 492 46 487 40 l 480 1 l 482 -1 l 687 1 m 462 424 l 693 758 b 725 787 707 778 718 787 b 733 772 730 787 733 782 b 732 757 733 767 732 762 l 674 424 l 462 424 "},"₣":{"x_min":1.390625,"x_max":761.109375,"ha":608,"o":"m 554 504 l 395 504 l 434 695 b 462 732 440 725 450 732 l 558 732 b 644 557 626 732 644 659 l 743 570 l 761 798 l 370 798 b 176 801 352 798 176 801 l 159 787 l 155 766 b 193 750 154 756 170 750 l 234 750 b 268 724 258 750 268 745 b 263 695 268 717 266 706 l 225 504 l 106 504 l 93 441 l 212 441 l 201 386 l 83 386 l 69 322 l 188 322 l 144 104 b 87 49 136 65 119 49 l 51 49 b 6 32 29 49 8 43 l 1 11 l 12 -1 b 205 1 12 -1 152 1 b 402 -1 255 1 402 -1 l 418 11 l 422 32 b 384 49 425 43 411 49 l 348 49 b 312 83 322 49 312 61 b 315 104 312 89 313 96 l 359 322 l 518 322 l 530 386 l 372 386 l 383 441 l 541 441 l 554 504 "},"Ë":{"x_min":31.5,"x_max":816.5,"ha":747,"o":"m 627 1040 b 703 965 627 998 661 965 b 779 1040 745 965 779 998 b 703 1115 779 1081 745 1115 b 627 1040 661 1115 627 1081 m 319 1040 b 394 965 319 998 352 965 b 469 1040 435 965 469 998 b 394 1115 469 1081 435 1115 b 319 1040 352 1115 319 1081 m 34 0 l 686 0 b 765 234 709 75 738 161 l 709 248 b 531 63 668 145 605 63 l 327 63 b 313 80 317 63 313 68 b 316 104 313 87 313 94 l 377 448 l 527 448 b 556 388 552 448 556 425 b 556 350 556 376 556 363 b 576 336 555 344 562 336 l 604 336 l 614 348 b 627 477 615 372 619 427 b 660 606 636 529 653 584 l 654 620 l 626 620 b 602 605 612 620 602 611 b 537 506 584 550 570 506 l 387 506 l 437 793 b 463 833 442 822 451 833 l 637 833 b 748 659 727 833 742 730 l 804 672 b 816 897 804 743 806 816 l 192 897 l 188 894 l 182 862 b 191 851 181 855 185 851 l 210 851 b 274 806 255 851 274 838 b 273 790 274 801 273 795 l 152 106 b 67 45 144 62 121 45 l 49 45 b 37 33 44 45 38 41 l 31 2 l 34 0 "},"'":{"x_min":252.78125,"x_max":422.21875,"ha":322,"o":"m 273 585 l 322 593 b 419 844 322 593 415 823 b 422 862 420 850 422 857 b 368 896 422 880 411 896 b 261 821 308 896 268 853 b 252 590 261 812 252 590 l 273 585 "},"ª":{"x_min":197.21875,"x_max":636.109375,"ha":558,"o":"m 437 555 b 494 511 437 539 447 511 b 636 596 541 511 570 530 l 613 617 b 561 582 587 593 570 582 b 552 596 556 582 552 585 b 559 635 552 604 555 617 l 602 814 b 631 926 611 850 631 926 b 630 930 631 929 631 930 l 579 928 b 527 879 565 910 548 894 b 450 928 518 907 497 928 b 197 642 344 928 197 785 b 323 511 197 590 227 511 b 436 573 359 511 379 521 l 438 573 b 437 555 437 568 437 560 m 468 698 b 355 557 437 622 380 557 b 309 658 315 557 309 610 b 452 892 309 753 379 892 b 495 823 479 892 495 860 b 468 698 495 808 486 747 "},"₭":{"x_min":0,"x_max":0,"ha":1389},"ð":{"x_min":105.828125,"x_max":776.609375,"ha":711,"o":"m 115 290 b 105 215 108 265 105 240 b 333 -16 105 94 175 -16 b 741 331 503 -16 684 94 b 757 468 753 379 757 424 b 636 818 757 606 707 724 b 619 838 632 824 625 831 l 776 929 l 746 995 l 566 891 b 429 990 533 923 486 955 l 383 943 b 462 858 409 920 434 891 b 476 838 466 851 471 845 l 308 741 l 337 674 l 514 777 b 571 611 539 729 557 674 b 503 618 550 615 526 618 b 115 290 378 618 171 531 m 371 47 b 273 208 311 47 273 111 b 287 315 273 240 278 276 b 487 559 311 416 372 559 b 589 495 530 559 566 533 l 583 497 b 584 473 584 490 584 481 b 565 312 584 423 578 368 b 371 47 515 93 423 47 "},"T":{"x_min":137.140625,"x_max":921.828125,"ha":794,"o":"m 273 897 b 251 929 245 897 249 921 l 203 935 b 137 721 187 867 164 794 l 188 714 b 327 832 234 825 253 832 l 398 832 b 453 778 446 832 460 819 l 335 107 b 251 46 328 68 306 46 l 216 46 b 203 33 210 46 205 42 l 198 1 l 201 -1 b 384 1 201 -1 337 1 b 595 -1 437 1 595 -1 l 598 1 l 603 33 b 595 46 605 42 601 46 l 560 46 b 498 107 507 46 491 64 l 616 774 b 689 832 623 819 642 832 l 762 832 b 857 714 835 832 851 825 l 913 721 b 921 935 912 794 914 867 l 873 929 b 837 897 870 921 866 897 l 273 897 "},"Þ":{"x_min":29.171875,"x_max":822.21875,"ha":779,"o":"m 212 1 b 411 -1 265 1 411 -1 l 413 1 l 419 33 b 409 45 420 41 416 45 l 375 45 b 309 88 329 45 309 58 b 312 106 309 94 311 99 l 331 217 b 448 208 352 209 400 208 b 819 476 684 208 801 371 b 822 517 820 488 822 503 b 556 726 822 612 768 726 b 422 723 533 726 470 726 l 433 791 b 518 851 440 830 462 851 l 552 851 b 565 862 558 851 563 855 l 570 895 l 568 897 b 375 895 568 897 422 895 b 190 897 322 895 190 897 l 186 895 l 180 862 b 188 851 179 855 184 851 l 208 851 b 272 808 252 851 272 838 b 270 790 272 802 270 795 l 150 106 b 66 45 143 62 119 45 l 47 45 b 34 33 41 45 36 41 l 29 1 l 30 -1 b 212 1 30 -1 161 1 m 411 662 b 533 680 441 669 506 680 b 662 542 600 680 662 652 b 656 476 662 523 661 501 b 433 256 625 296 530 256 b 340 262 383 256 351 259 l 411 662 "},"₮":{"x_min":0,"x_max":0,"ha":1389},"j":{"x_min":-126.5625,"x_max":497.0625,"ha":485,"o":"m 331 793 b 413 709 331 747 367 709 b 497 793 459 709 497 747 b 413 876 497 838 459 876 b 331 793 367 876 331 838 m 424 451 b 466 616 441 522 466 616 b 458 620 466 619 463 620 b 191 577 415 605 291 588 l 185 536 l 244 530 b 269 498 256 527 269 522 b 260 444 269 486 266 468 l 215 248 l 149 -47 b 45 -234 124 -159 74 -234 b -71 -156 1 -234 8 -156 b -126 -212 -93 -156 -126 -165 b 31 -287 -126 -259 -44 -287 b 395 326 230 -287 316 -5 l 424 451 "},"1":{"x_min":122.21875,"x_max":590.28125,"ha":678,"o":"m 252 600 b 400 655 366 652 400 655 b 386 580 400 651 394 622 l 288 108 b 255 50 281 72 277 50 l 173 50 b 129 34 137 50 131 41 l 122 -1 b 344 1 184 0 280 0 l 561 -1 l 568 33 b 530 50 570 45 548 50 l 459 50 b 441 68 447 50 441 55 b 448 108 441 77 444 90 l 590 805 l 518 805 b 241 663 431 752 376 719 l 252 600 "},"ä":{"x_min":108.328125,"x_max":773.609375,"ha":750,"o":"m 554 794 b 629 719 554 752 587 719 b 704 794 670 719 704 752 b 629 869 704 836 670 869 b 554 794 587 869 554 836 m 304 794 b 379 719 304 752 337 719 b 454 794 420 719 454 752 b 379 869 454 836 420 869 b 304 794 337 869 304 836 m 472 54 b 558 -13 472 29 487 -13 b 773 113 630 -13 675 16 l 738 145 b 659 93 698 109 675 93 b 647 115 652 93 647 98 b 656 173 647 127 650 145 l 722 445 b 766 615 734 498 766 615 b 763 620 766 618 765 620 l 687 616 b 608 544 665 590 640 566 b 491 616 594 586 563 616 b 108 183 331 616 108 401 b 300 -13 108 105 154 -13 b 470 81 354 -13 384 0 l 473 80 b 472 54 472 72 472 59 m 518 270 b 347 55 472 155 386 55 b 277 209 286 55 277 134 b 495 562 277 352 384 562 b 561 459 536 562 561 513 b 518 270 561 437 545 344 "},"<":{"x_min":119.4375,"x_max":772.21875,"ha":711,"o":"m 280 333 l 754 494 l 772 580 l 131 363 l 119 302 l 670 86 l 688 172 l 280 333 "},"£":{"x_min":23.609375,"x_max":769.453125,"ha":650,"o":"m 422 400 l 422 401 l 601 401 l 613 465 l 434 465 l 450 538 b 573 731 472 647 529 731 b 612 702 584 731 598 718 b 673 677 625 690 636 677 b 769 734 722 677 762 698 l 769 741 b 648 800 769 786 686 800 b 438 727 565 800 494 775 b 276 472 345 651 298 579 l 275 465 l 184 465 l 172 401 l 261 401 l 255 370 b 140 115 237 280 208 173 b 116 94 125 101 118 94 l 123 94 b 23 15 73 72 29 43 l 23 11 b 83 -23 23 -5 51 -23 b 179 31 118 -23 170 -6 b 212 63 180 44 191 63 b 291 27 234 63 262 45 b 427 -16 326 5 365 -16 b 661 101 544 -16 622 33 l 629 143 b 468 62 565 76 497 62 b 409 88 445 62 429 73 l 411 88 b 273 126 386 105 355 125 b 422 400 337 172 391 250 "},"¹":{"x_min":212.65625,"x_max":506,"ha":461,"o":"m 314 600 b 241 539 305 561 289 539 l 230 539 b 216 528 223 539 218 534 l 212 505 l 214 503 b 343 505 214 503 293 505 b 494 503 397 505 494 503 l 497 505 l 501 528 b 493 539 504 534 499 539 l 480 539 b 430 579 444 539 430 553 b 433 600 430 584 432 591 l 506 955 l 442 955 b 254 871 366 914 328 897 l 259 825 b 368 858 291 836 354 857 b 355 805 357 851 362 844 l 314 600 "},"t":{"x_min":122.21875,"x_max":563.890625,"ha":485,"o":"m 141 165 b 122 54 130 120 122 77 b 198 -13 122 29 126 -13 b 422 113 270 -13 336 26 l 379 151 b 306 93 350 113 322 93 b 297 173 290 93 284 122 l 381 537 l 491 537 b 556 559 516 537 554 544 l 563 590 b 525 602 563 598 551 602 l 395 602 l 448 826 l 306 779 b 145 602 283 650 273 602 l 131 537 l 227 537 l 141 165 "},"¬":{"x_min":123.609375,"x_max":902.78125,"ha":811,"o":"m 693 181 l 826 181 l 902 561 l 138 561 l 123 490 l 754 490 l 693 181 "},"ù":{"x_min":109.71875,"x_max":794.453125,"ha":779,"o":"m 558 931 b 531 934 554 933 538 934 b 431 902 484 934 443 911 l 425 887 l 552 736 b 587 708 570 715 579 708 b 618 731 601 708 615 719 b 619 745 618 736 619 740 b 615 766 619 752 618 761 l 558 931 m 388 437 b 408 548 398 479 408 525 b 331 616 408 573 404 616 b 109 488 259 616 205 588 b 148 451 119 472 130 459 b 223 509 179 490 206 509 b 234 487 229 509 234 502 b 225 429 234 475 230 455 l 165 195 b 150 88 158 170 150 113 b 277 -13 150 16 179 -13 b 506 109 350 -13 426 19 b 494 54 494 79 494 59 b 569 -13 494 29 498 -13 b 794 113 641 -13 708 26 l 751 151 b 679 93 722 113 694 93 b 668 115 672 93 668 98 b 675 173 668 127 668 147 l 781 619 b 618 601 737 611 644 601 l 554 327 b 345 68 511 145 386 68 b 318 122 323 68 318 86 b 330 212 318 144 322 181 l 388 437 "},"W":{"x_min":151.390625,"x_max":1462.5,"ha":1329,"o":"m 412 -16 b 498 45 445 -16 477 5 l 729 513 b 737 527 731 520 736 527 b 741 509 740 527 740 522 l 806 53 b 880 -16 812 9 825 -16 b 970 60 918 -16 943 5 l 1325 777 b 1423 851 1354 834 1370 851 l 1437 851 b 1455 862 1438 851 1454 851 l 1462 895 l 1459 897 b 1347 895 1459 897 1390 895 b 1183 897 1291 895 1183 897 l 1179 894 l 1173 860 b 1181 851 1172 856 1176 851 b 1248 790 1245 851 1272 840 l 1004 298 l 951 192 l 940 287 l 873 769 b 955 851 861 848 906 851 b 968 860 959 851 966 853 l 973 894 l 972 897 b 744 895 972 897 809 895 b 616 897 691 895 616 897 l 613 894 l 608 862 b 622 851 606 855 612 851 l 626 851 b 702 794 677 851 698 831 l 715 705 b 715 666 718 691 716 678 b 695 613 711 648 702 630 l 541 299 l 494 202 l 481 302 l 412 794 b 480 851 404 845 429 851 b 494 863 487 851 493 855 l 500 894 l 497 897 b 308 895 497 897 376 895 b 161 897 258 895 161 897 l 158 894 l 151 862 b 166 851 151 855 156 851 l 183 851 b 244 780 220 851 238 815 l 347 48 b 412 -16 354 6 369 -16 "},"ï":{"x_min":149,"x_max":597,"ha":457,"o":"m 447 794 b 522 719 447 752 480 719 b 597 794 563 719 597 752 b 522 869 597 836 563 869 b 447 794 480 869 447 836 m 197 794 b 272 719 197 752 230 719 b 347 794 313 719 347 752 b 272 869 347 836 313 869 b 197 794 230 869 197 836 m 392 451 b 434 616 408 522 434 616 b 426 620 434 619 431 620 b 160 577 383 605 259 588 l 154 536 l 212 530 b 237 498 225 527 237 522 b 229 444 237 486 234 468 l 167 165 b 149 54 157 122 149 77 b 223 -13 149 29 153 -13 b 448 113 295 -13 362 26 l 405 151 b 334 93 376 113 349 93 b 322 115 327 93 322 98 b 331 173 322 127 325 145 l 392 451 "},">":{"x_min":75,"x_max":726.390625,"ha":711,"o":"m 566 330 l 91 169 l 75 83 l 715 298 l 726 359 l 175 577 l 156 491 l 566 330 "},"v":{"x_min":127.78125,"x_max":734.71875,"ha":663,"o":"m 441 181 l 412 477 b 327 616 404 554 395 616 b 127 486 243 616 197 569 b 162 443 133 466 141 455 b 233 502 180 470 213 502 b 254 473 241 502 251 494 l 313 22 b 369 -16 316 0 331 -16 b 422 16 391 -16 408 -4 l 640 338 b 734 527 705 434 734 491 b 665 616 734 576 720 616 b 584 548 622 616 584 584 b 611 440 584 487 611 472 b 575 368 611 420 601 405 l 444 180 l 441 181 "},"û":{"x_min":110.28125,"x_max":795,"ha":779,"o":"m 608 897 l 539 897 b 361 718 486 833 421 773 l 389 693 b 556 809 451 730 493 756 b 674 693 592 759 626 730 l 713 718 b 608 897 675 773 636 831 m 389 437 b 408 548 399 479 408 525 b 332 616 408 573 404 616 b 110 488 260 616 206 588 b 149 451 120 472 131 459 b 224 509 179 490 207 509 b 235 487 229 509 235 502 b 225 429 235 475 231 455 l 165 195 b 150 88 158 170 150 113 b 278 -13 150 16 179 -13 b 507 109 350 -13 426 19 b 495 54 495 79 495 59 b 570 -13 495 29 499 -13 b 795 113 642 -13 708 26 l 751 151 b 679 93 722 113 695 93 b 668 115 672 93 668 98 b 675 173 668 127 668 147 l 782 619 b 618 601 738 611 645 601 l 554 327 b 346 68 511 145 386 68 b 318 122 324 68 318 86 b 331 212 318 144 322 181 l 389 437 "},"Ò":{"x_min":134.71875,"x_max":1073.609375,"ha":1019,"o":"m 654 1137 l 538 1075 l 740 987 b 797 970 768 975 784 970 b 820 994 816 970 820 987 b 804 1020 820 1002 816 1011 l 654 1137 m 520 -16 b 1073 543 859 -16 1073 268 b 684 913 1073 770 902 913 b 134 343 361 913 134 613 b 520 -16 134 119 295 -16 m 656 856 b 887 558 787 856 887 755 b 558 40 887 315 755 40 b 322 340 420 40 322 148 b 656 856 322 575 455 856 "},"&":{"x_min":92,"x_max":1084.625,"ha":1013,"o":"m 620 100 b 794 -16 665 -2 738 -16 b 981 131 856 -16 929 31 l 936 155 b 820 68 894 87 858 68 b 724 213 799 68 752 156 b 883 418 795 298 883 418 b 997 544 949 506 977 544 l 1034 544 b 1080 559 1055 544 1076 548 l 1084 577 l 1073 591 b 933 587 1073 591 980 587 b 795 591 887 587 795 591 l 780 577 l 777 558 b 808 544 776 554 777 547 l 847 544 b 837 527 842 543 838 537 b 680 300 830 493 780 416 b 582 506 641 375 598 465 b 579 516 582 509 580 513 b 833 745 709 586 817 675 b 836 770 834 754 836 762 b 659 895 836 845 761 895 b 382 715 502 895 400 798 b 378 675 379 702 378 690 b 414 519 378 634 389 584 b 98 219 208 412 119 322 b 92 161 93 198 92 179 b 343 -16 92 33 197 -16 b 620 100 459 -16 545 29 m 576 181 b 364 40 491 90 439 40 b 257 159 304 40 257 73 b 262 219 257 176 258 197 b 441 447 282 311 323 380 b 576 181 464 397 526 272 m 534 718 b 640 838 552 805 615 838 b 693 776 670 838 693 815 b 688 745 693 766 691 756 b 552 597 679 700 623 644 b 533 698 541 637 533 672 b 534 718 533 705 534 712 "},"Ð":{"x_min":29.171875,"x_max":990.28125,"ha":956,"o":"m 31 0 l 450 0 b 983 429 648 0 922 87 b 990 508 987 455 990 481 b 584 897 990 727 826 897 l 190 897 l 186 894 l 180 862 b 188 851 179 855 184 851 l 208 851 b 272 808 252 851 272 838 b 270 790 272 802 270 795 l 212 462 l 116 462 l 105 398 l 201 398 l 150 106 b 66 45 143 62 119 45 l 47 45 b 34 33 41 45 36 41 l 29 2 l 31 0 m 312 104 l 363 398 l 481 398 l 493 462 l 375 462 l 433 793 b 525 841 441 837 477 841 b 811 511 738 841 811 683 b 801 394 811 472 806 431 b 419 55 752 122 590 55 b 309 87 330 55 309 61 b 312 104 309 91 311 97 "},"I":{"x_min":51.390625,"x_max":627.125,"ha":476,"o":"m 376 169 l 473 726 b 619 850 494 841 520 845 b 622 898 629 858 629 890 b 418 895 554 897 497 895 b 209 898 336 895 279 897 b 209 850 200 890 202 858 b 309 787 283 845 309 844 b 302 726 309 770 306 751 l 205 169 b 58 45 184 54 156 50 b 56 -2 48 37 50 5 b 261 0 125 -1 181 0 b 469 -2 343 0 400 -1 b 470 45 479 5 477 37 b 368 106 395 48 368 51 b 376 169 368 122 370 143 "},"G":{"x_min":105.515625,"x_max":1017.90625,"ha":967,"o":"m 920 318 b 991 377 927 355 936 377 l 998 377 b 1012 390 1005 377 1010 381 l 1017 422 l 1015 425 b 841 422 1015 425 890 422 b 661 425 790 422 661 425 l 658 422 l 651 390 b 661 377 649 381 655 377 l 679 377 b 765 326 727 377 765 362 b 765 318 765 323 765 320 l 726 102 b 545 47 674 63 604 47 b 281 354 365 47 281 186 b 291 454 281 386 284 419 b 659 857 333 691 498 857 b 886 607 829 857 872 737 l 940 618 b 952 852 940 694 941 772 b 670 913 884 852 851 913 b 113 427 433 913 166 731 b 105 348 108 400 105 375 b 511 -13 105 144 258 -13 b 901 118 679 -13 792 36 b 893 158 892 127 888 137 l 920 318 "},"`":{"x_min":271,"x_max":518.1875,"ha":544,"o":"m 448 959 b 398 973 433 969 412 973 b 294 944 341 973 311 954 l 297 944 b 273 931 280 936 276 933 l 271 923 l 405 768 b 464 738 425 747 437 738 b 516 758 489 738 514 750 b 518 770 516 763 518 769 b 512 794 518 775 516 781 l 448 959 "},"·":{"x_min":186.109375,"x_max":340.28125,"ha":381,"o":"m 248 283 b 338 358 290 283 330 318 b 340 372 340 363 340 368 b 279 433 340 406 312 433 b 188 358 237 433 195 397 b 186 343 187 352 186 348 b 248 283 186 311 208 283 "},"r":{"x_min":113.890625,"x_max":670.828125,"ha":572,"o":"m 395 520 l 394 522 l 419 616 b 411 620 419 619 416 620 b 147 577 368 605 247 588 l 141 536 l 200 530 b 225 498 212 527 225 522 b 216 444 225 486 222 468 l 113 0 l 126 -28 l 275 10 l 358 387 b 501 515 373 459 477 508 b 590 461 509 494 527 461 b 670 545 634 461 670 506 b 576 616 670 577 650 616 b 395 520 526 616 438 565 "},"₤":{"x_min":0,"x_max":745.828125,"ha":608,"o":"m 376 316 l 543 316 l 555 380 l 393 380 l 404 433 l 566 433 l 580 498 l 418 498 l 426 538 b 550 731 447 647 505 731 b 587 702 559 731 575 718 b 648 677 600 690 612 677 b 744 734 697 677 737 698 b 745 741 745 737 745 740 b 623 800 745 786 661 800 b 415 727 541 800 469 775 b 258 498 329 656 280 591 l 133 498 l 119 433 l 244 433 l 233 380 l 108 380 l 95 316 l 219 316 b 115 115 200 237 169 161 l 93 94 l 100 94 b 0 15 48 72 5 43 l 0 11 b 58 -23 0 -5 27 -23 b 154 31 94 -23 144 -6 b 187 63 156 44 166 63 b 268 27 211 63 237 45 b 404 -16 302 5 340 -16 b 636 101 519 -16 598 33 l 604 143 b 443 62 541 76 473 62 b 386 88 420 62 405 73 b 250 126 362 105 330 125 b 376 316 302 163 347 220 "},"¿":{"x_min":11.109375,"x_max":530.5625,"ha":597,"o":"m 401 456 b 505 547 436 456 493 483 b 450 611 513 583 490 611 b 347 527 397 611 354 561 b 401 456 340 490 361 456 m 376 -195 b 252 -268 369 -234 313 -268 b 173 -148 202 -268 173 -213 b 179 -101 173 -133 176 -118 b 281 50 193 -31 225 5 b 430 276 400 140 418 219 l 437 311 b 440 333 438 319 440 326 b 400 358 440 350 431 358 b 341 311 356 358 347 341 l 334 279 b 218 113 315 179 261 141 b 15 -105 137 61 36 -2 b 11 -151 12 -122 11 -136 b 229 -318 11 -252 90 -318 b 430 -263 313 -318 380 -298 b 529 -144 484 -225 519 -193 b 530 -127 530 -138 530 -133 b 465 -66 530 -86 494 -66 b 372 -120 423 -66 379 -86 b 373 -158 369 -134 369 -150 b 376 -195 376 -165 380 -176 "},"ý":{"x_min":20.9375,"x_max":762.609375,"ha":708,"o":"m 575 922 l 429 747 b 414 713 416 731 414 718 b 430 698 414 705 420 698 b 483 718 444 698 465 704 l 673 859 l 665 893 b 595 925 654 901 645 925 b 575 922 589 925 579 923 m 409 477 b 325 616 395 552 386 616 b 125 486 240 616 194 569 b 159 443 130 466 139 455 b 230 502 177 470 211 502 b 251 473 238 502 245 494 b 364 -37 251 473 330 140 l 327 -94 b 187 -212 270 -188 212 -212 b 111 -191 161 -212 141 -191 b 20 -261 29 -191 20 -236 b 115 -322 20 -309 83 -322 b 415 -93 200 -322 330 -231 l 677 338 b 762 527 741 443 762 491 b 693 616 762 576 748 616 b 612 548 650 616 612 584 b 639 440 612 487 639 472 b 612 368 639 420 636 409 l 472 123 l 469 125 l 409 477 "},"x":{"x_min":63.890625,"x_max":784.71875,"ha":718,"o":"m 487 494 l 454 445 l 433 515 b 325 618 415 569 391 618 b 166 570 265 618 216 600 b 145 536 147 556 145 544 b 170 516 145 523 154 516 b 243 547 200 516 223 547 b 272 513 254 547 263 538 l 344 281 l 227 105 b 197 83 215 88 205 83 b 130 105 177 83 161 105 b 63 41 81 105 63 75 b 165 -16 63 1 122 -16 b 330 93 229 -16 270 4 l 380 168 l 402 97 b 547 -16 425 25 477 -16 b 697 84 605 -16 654 11 l 631 122 b 591 69 631 97 612 69 b 562 102 580 69 569 79 l 490 333 l 590 486 b 630 520 605 508 625 520 b 663 511 636 520 652 516 b 723 494 676 504 704 494 b 784 562 758 494 784 527 b 693 618 784 600 737 618 b 487 494 608 618 543 579 "},"è":{"x_min":95.46875,"x_max":694.078125,"ha":658,"o":"m 519 930 b 492 933 514 931 499 933 b 392 901 445 933 403 909 l 385 886 l 513 734 b 548 706 531 713 539 706 b 578 730 562 706 576 718 b 580 744 578 734 580 738 b 576 765 580 751 578 759 l 519 930 m 694 512 b 517 616 694 562 651 616 b 95 201 263 616 95 376 b 326 -13 95 80 164 -13 b 630 152 452 -13 551 43 l 569 193 b 376 62 485 104 426 62 b 269 231 327 62 269 111 b 270 258 269 237 269 247 b 694 512 645 311 694 461 m 539 513 b 278 305 539 379 381 322 b 485 562 327 500 431 562 b 539 513 517 562 539 548 "},"º":{"x_min":161.109375,"x_max":604.171875,"ha":519,"o":"m 163 594 b 161 562 162 583 161 573 b 340 416 161 477 234 416 b 600 602 490 416 579 506 b 604 645 602 616 604 631 b 423 788 604 723 555 788 b 163 594 286 788 188 713 m 405 743 b 468 648 443 743 468 709 b 461 580 468 629 465 605 b 365 463 441 486 391 463 b 298 563 318 463 298 511 b 302 608 298 579 300 594 b 405 743 318 680 356 743 "},"Ø":{"x_min":86.59375,"x_max":1075.4375,"ha":1019,"o":"m 869 688 b 887 558 881 651 887 606 b 558 40 887 315 756 40 b 356 168 469 40 396 84 l 869 688 m 657 856 b 844 745 736 856 803 819 l 333 230 b 322 340 326 262 322 300 b 657 856 322 575 456 856 m 135 -55 l 256 66 b 521 -16 324 12 415 -16 b 1074 543 860 -16 1074 268 b 976 797 1074 647 1036 734 l 1075 897 l 1028 930 l 933 836 b 685 913 867 886 779 913 b 135 343 361 913 135 613 b 214 109 135 247 162 168 l 86 -19 l 135 -55 "},"÷":{"x_min":163.890625,"x_max":768.0625,"ha":765,"o":"m 768 365 l 180 365 l 163 284 l 752 284 l 768 365 m 362 136 b 413 70 355 101 379 70 b 491 136 450 70 484 101 b 440 201 500 172 476 201 b 362 136 404 201 369 172 m 438 509 b 490 444 431 473 454 444 b 568 509 526 444 559 473 b 516 573 573 544 552 573 b 438 509 480 573 445 544 "},"h":{"x_min":101.390625,"x_max":787.5,"ha":781,"o":"m 450 809 l 484 955 b 468 969 484 965 480 969 b 215 933 430 955 272 937 l 209 891 b 216 884 209 887 211 884 l 259 881 b 288 842 277 881 288 873 b 279 773 288 827 286 802 l 101 0 l 115 -28 l 266 16 l 352 398 b 551 537 454 524 516 537 b 575 481 563 537 575 520 b 558 383 575 456 568 423 l 505 165 b 487 53 494 122 487 77 b 562 -14 487 28 491 -14 b 787 113 636 -14 701 26 l 744 151 b 672 92 715 113 687 92 b 661 115 665 92 661 98 b 670 173 661 127 663 145 l 722 391 b 741 503 731 433 741 477 b 618 616 741 590 687 616 b 380 509 550 616 475 597 l 450 809 "},".":{"x_min":104.171875,"x_max":258.328125,"ha":339,"o":"m 190 140 b 104 48 155 140 104 112 b 172 -13 104 12 133 -13 b 258 68 225 -13 258 34 b 190 140 258 105 229 140 "},"₱":{"x_min":2.9375,"x_max":762.71875,"ha":608,"o":"m 762 667 l 704 667 b 469 819 698 738 647 819 b 330 813 441 819 396 816 b 275 809 314 812 293 810 b 165 806 237 808 177 806 l 159 776 b 196 762 158 770 159 762 b 209 763 200 762 205 762 b 227 765 215 763 223 765 b 246 738 234 765 246 760 b 243 715 246 733 244 724 l 232 667 l 146 667 l 133 603 l 219 603 l 208 549 l 122 549 l 109 485 l 196 485 l 115 93 b 68 44 109 62 96 44 l 50 44 b 7 29 25 44 9 39 l 2 11 l 14 -1 b 179 1 14 -1 134 1 b 352 -1 227 1 352 -1 l 369 11 l 373 29 b 336 44 376 39 355 44 l 302 44 b 273 73 283 44 273 54 b 276 93 273 79 275 86 l 327 348 b 359 347 341 341 326 347 b 650 485 509 347 601 412 l 725 485 l 739 549 l 686 549 b 703 603 694 569 698 585 l 750 603 l 762 667 m 411 755 l 390 751 b 450 765 412 759 437 765 b 550 667 497 765 544 747 l 393 667 l 411 755 m 508 485 b 365 399 472 427 423 399 b 339 401 354 399 347 399 l 355 485 l 508 485 m 546 603 l 544 597 b 543 583 544 592 544 588 b 534 549 540 573 537 559 l 369 549 l 379 603 l 546 603 "},";":{"x_min":57.984375,"x_max":347.21875,"ha":339,"o":"m 279 573 b 193 481 244 573 193 545 b 261 419 193 445 222 419 b 347 501 313 419 347 468 b 279 573 347 538 318 573 m 208 141 b 116 69 152 141 116 109 b 162 0 116 31 134 5 b 181 -23 170 -2 181 -5 b 62 -136 181 -59 141 -118 b 63 -182 56 -152 55 -169 b 284 44 154 -166 284 -104 b 208 141 284 95 262 141 "},"f":{"x_min":-129.171875,"x_max":737.5,"ha":514,"o":"m 245 537 l 213 388 b 168 108 204 348 180 206 b 36 -265 141 -91 109 -265 b -68 -206 16 -265 16 -206 b -129 -256 -113 -206 -129 -236 b 0 -330 -129 -280 -98 -330 b 165 -237 68 -330 126 -293 b 402 537 301 -38 377 441 l 504 537 b 570 559 529 537 566 544 l 577 590 b 538 602 577 598 565 602 l 418 602 l 436 680 b 562 919 473 845 513 919 b 586 880 577 919 584 904 b 672 808 588 843 633 808 b 737 863 716 808 737 829 b 573 969 737 926 693 969 b 258 602 508 969 334 947 l 215 602 b 148 572 169 602 151 583 b 143 547 147 565 143 547 b 179 537 143 540 154 537 l 245 537 "},"A":{"x_min":18.0625,"x_max":994.453125,"ha":999,"o":"m 879 126 l 729 870 b 681 913 722 899 712 913 b 616 870 666 913 636 902 l 170 130 b 54 47 150 95 119 55 l 34 44 b 20 31 29 42 20 40 l 18 0 l 20 -3 b 140 0 20 -3 86 0 b 312 -3 190 0 312 -3 l 315 0 l 319 31 b 309 44 319 40 315 42 l 294 47 b 247 101 259 52 229 70 l 376 315 b 402 334 384 328 391 334 l 665 334 l 709 101 b 651 47 715 65 684 52 l 636 44 b 626 31 629 42 626 40 l 622 0 l 625 -3 b 880 0 625 -3 830 0 b 986 -3 934 0 986 -3 l 988 0 l 994 31 b 980 44 994 40 986 42 l 961 47 b 879 126 894 55 886 85 m 438 399 b 436 416 429 399 429 405 l 595 685 l 652 399 l 438 399 "},"6":{"x_min":120.828125,"x_max":743.0625,"ha":678,"o":"m 738 764 l 743 807 b 348 669 572 797 456 760 b 133 321 229 569 158 446 b 120 214 125 282 120 246 b 347 -16 120 28 250 -16 b 665 240 559 -16 645 144 b 670 292 668 254 670 272 b 454 476 670 368 636 476 b 326 450 416 476 368 465 b 476 664 365 542 419 617 b 738 764 588 754 673 760 m 298 369 b 415 421 358 418 395 421 b 516 287 495 421 516 350 b 511 230 516 265 513 246 b 370 33 481 90 419 33 b 272 192 326 33 272 68 b 286 317 272 226 276 267 b 298 369 288 330 294 355 "},"O":{"x_min":134.71875,"x_max":1073.609375,"ha":1019,"o":"m 520 -16 b 1073 543 859 -16 1073 268 b 684 913 1073 770 902 913 b 134 343 361 913 134 613 b 520 -16 134 119 295 -16 m 656 856 b 887 558 787 856 887 755 b 558 40 887 315 755 40 b 322 340 420 40 322 148 b 656 856 322 575 455 856 "},"n":{"x_min":108.328125,"x_max":795.828125,"ha":804,"o":"m 388 520 l 387 522 l 412 616 b 404 620 412 619 409 620 b 140 577 361 605 240 588 l 134 535 l 193 530 b 218 498 205 527 218 522 b 209 444 218 485 215 467 l 108 0 l 119 -28 l 269 16 l 362 413 b 552 538 436 505 508 538 b 581 494 575 538 581 524 b 565 388 581 473 575 433 l 515 162 b 495 51 505 119 495 74 b 572 -16 495 26 500 -16 b 795 110 644 -16 709 23 l 752 148 b 681 90 723 110 697 90 b 670 112 676 90 670 95 b 679 170 670 124 673 144 l 729 395 b 744 502 740 445 744 478 b 640 616 744 588 698 616 b 388 520 579 616 495 602 "},"3":{"x_min":85.859375,"x_max":694.1875,"ha":678,"o":"m 481 752 b 544 674 515 752 544 726 b 540 639 544 663 542 652 b 308 456 527 577 417 474 l 305 401 b 378 413 342 409 369 413 b 496 303 430 413 496 398 b 491 249 496 288 495 270 b 303 35 456 80 341 35 b 226 89 260 35 235 67 b 166 124 216 109 206 124 b 85 76 126 124 90 98 l 85 67 b 276 -17 85 16 190 -17 b 658 267 448 -17 619 82 b 662 314 660 284 662 299 b 517 480 662 413 587 462 b 692 659 660 563 685 627 b 694 682 694 666 694 674 b 519 805 694 738 655 805 b 213 630 305 805 221 674 b 212 623 213 628 212 626 b 263 580 212 609 219 580 b 348 653 319 580 342 626 b 481 752 365 732 455 752 "},"9":{"x_min":100,"x_max":722.21875,"ha":678,"o":"m 104 22 l 100 -20 b 494 117 270 -10 386 26 b 709 466 613 217 684 341 b 722 573 718 505 722 541 b 495 804 722 759 593 804 b 177 546 283 804 197 642 b 172 495 175 532 172 514 b 388 310 172 418 206 310 b 516 336 426 310 475 321 b 366 122 477 244 423 169 b 104 22 254 32 169 26 m 544 417 b 427 365 484 368 447 365 b 326 499 347 365 326 436 b 331 556 326 521 329 541 b 472 754 361 697 423 754 b 570 595 516 754 570 719 b 556 470 570 560 566 520 b 544 417 554 456 548 431 "},"l":{"x_min":127.765625,"x_max":493.046875,"ha":414,"o":"m 458 809 l 493 955 b 476 969 493 965 488 969 b 223 933 438 955 280 937 l 218 891 b 224 884 218 887 219 884 l 268 881 b 297 843 286 881 297 873 b 287 773 297 827 294 802 l 145 165 b 127 54 134 122 127 77 b 202 -13 127 29 131 -13 b 427 113 274 -13 341 26 l 384 151 b 312 93 355 113 327 93 b 301 115 305 93 301 98 b 311 173 301 127 304 145 l 458 809 "},"¤":{"x_min":89.296875,"x_max":752.640625,"ha":669,"o":"m 369 168 b 521 204 423 168 475 181 l 573 125 l 665 206 b 607 266 648 224 625 247 b 692 414 652 314 681 364 b 697 460 694 430 697 445 b 666 564 697 496 687 531 l 752 626 l 690 710 l 604 627 b 469 662 568 649 523 662 b 322 628 415 662 368 651 l 268 703 l 176 624 b 236 569 194 606 217 585 b 146 414 186 520 157 469 b 142 373 143 400 142 387 b 174 263 142 335 151 299 l 89 204 l 157 122 l 236 202 b 369 168 271 179 317 168 m 289 416 b 458 592 308 512 379 592 b 552 463 515 592 552 539 b 548 414 552 448 551 432 b 383 238 529 320 462 238 b 283 364 318 238 283 292 b 289 416 283 381 286 399 "},"4":{"x_min":106.9375,"x_max":662.5,"ha":678,"o":"m 623 566 l 556 566 l 447 444 l 413 284 l 238 284 b 593 795 393 441 513 629 b 573 801 587 795 581 801 b 541 805 559 804 543 805 b 500 794 518 805 505 802 b 115 290 433 677 283 436 b 106 279 108 286 106 284 b 113 243 106 272 109 262 l 126 219 b 161 211 129 212 134 211 l 400 211 l 376 101 b 348 48 369 65 365 48 l 311 48 b 268 33 277 48 269 38 l 261 -2 b 426 1 261 -2 373 1 b 601 -1 483 1 601 -1 l 608 33 b 570 48 609 38 604 48 l 534 48 b 523 63 526 48 523 54 b 529 101 523 73 526 86 l 551 211 l 662 211 l 662 284 l 566 284 l 623 566 "},"p":{"x_min":-40.28125,"x_max":769.453125,"ha":746,"o":"m 597 380 b 380 44 597 290 527 44 b 304 92 358 44 330 59 l 401 514 b 509 541 433 535 475 541 b 597 380 577 541 597 446 m 229 477 b 91 345 175 436 125 391 l 141 302 b 205 376 158 326 184 355 l 72 -216 b 29 -279 63 -252 52 -279 l 2 -279 b -40 -296 -19 -279 -40 -283 l -40 -327 l -37 -330 b 134 -322 -37 -330 86 -322 b 312 -325 187 -322 312 -325 l 315 -322 l 315 -289 b 275 -272 315 -279 302 -272 l 250 -272 b 231 -239 236 -272 231 -259 b 233 -218 231 -232 231 -225 b 283 1 250 -148 268 -69 b 377 -14 309 -9 341 -14 b 769 402 588 -14 769 255 b 554 617 769 528 720 617 b 419 587 500 617 455 601 l 433 653 l 262 623 l 229 477 "},"à":{"x_min":108.328125,"x_max":773.609375,"ha":750,"o":"m 527 930 b 501 933 523 931 508 933 b 401 901 454 933 412 909 l 394 886 l 522 734 b 556 706 540 713 548 706 b 587 730 570 706 584 718 b 588 744 587 734 588 738 b 584 765 588 751 587 759 l 527 930 m 472 54 b 558 -13 472 29 487 -13 b 773 113 630 -13 675 16 l 738 145 b 659 93 698 109 675 93 b 647 115 652 93 647 98 b 656 173 647 127 650 145 l 722 445 b 766 615 734 498 766 615 b 763 620 766 618 765 620 l 687 616 b 608 544 665 590 640 566 b 491 616 594 586 563 616 b 108 183 331 616 108 401 b 300 -13 108 105 154 -13 b 470 81 354 -13 384 0 l 473 80 b 472 54 472 72 472 59 m 518 270 b 347 55 472 155 386 55 b 277 209 286 55 277 134 b 495 562 277 352 384 562 b 561 459 536 562 561 513 b 518 270 561 437 545 344 "},"Ü":{"x_min":184.71875,"x_max":1120.828125,"ha":949,"o":"m 886 790 l 815 383 b 526 49 788 233 730 49 b 361 237 477 49 361 87 b 376 372 361 281 369 327 l 450 790 b 459 851 458 840 458 851 b 472 862 466 851 470 855 l 479 895 l 476 897 b 383 895 476 897 433 895 b 194 897 329 895 194 897 l 191 895 l 184 862 b 194 851 184 853 188 851 l 213 851 b 281 808 261 851 281 838 b 279 790 281 802 280 795 l 198 326 b 190 242 193 295 190 267 b 486 -16 190 28 365 -16 b 927 406 793 -16 883 159 l 995 790 b 1081 851 1002 828 1025 851 l 1101 851 b 1115 862 1108 851 1113 855 l 1120 895 l 1118 897 b 959 895 1118 897 1009 895 b 898 897 905 895 898 897 l 895 895 l 888 862 b 898 851 888 855 893 851 l 886 790 m 711 942 b 786 867 711 901 744 867 b 861 942 827 867 861 901 b 786 1017 861 984 827 1017 b 711 942 744 1017 711 984 m 520 942 b 595 867 520 901 554 867 b 670 942 637 867 670 901 b 595 1017 670 984 637 1017 b 520 942 554 1017 520 984 "},"ó":{"x_min":100.21875,"x_max":732.15625,"ha":704,"o":"m 511 923 l 365 748 b 350 715 353 733 350 719 b 366 700 350 706 357 700 b 419 719 380 700 401 705 l 609 861 l 601 894 b 532 926 590 902 582 926 b 511 923 525 926 515 925 m 100 229 b 341 -13 100 154 143 -13 b 732 387 532 -13 732 168 b 489 616 732 487 680 616 b 100 229 239 616 100 395 m 275 240 b 462 559 275 361 328 559 b 559 377 544 559 559 462 b 376 45 559 288 521 45 b 275 240 344 45 275 69 "}}}
